<?xml version="1.0" encoding="utf-8"?>
<svg viewBox="100.00001525878906 100.00001525878906 1535.1002197265625 980.5999755859375" width="1535.1002197265625" height="980.5999755859375" xmlns="http://www.w3.org/2000/svg"><linearGradient id="SVGID_17_" gradientUnits="userSpaceOnUse" x1="1080.5962" y1="100.0054" x2="102.6958" y2="1077.9058">
			<stop offset="0" style="stop-color:#F2F2F2"/>
			<stop offset="0.5653" style="stop-color:#F0F0F0"/>
			<stop offset="0.8053" style="stop-color:#E9E9EA"/>
			<stop offset="0.9833" style="stop-color:#DCDDDE"/>
			<stop offset="0.9877" style="stop-color:#DCDDDE"/>
		</linearGradient><g transform="matrix(1, 0, 0, 1, 1.1368683772161603e-13, 5.684341886080802e-14)"><g transform="matrix(1, 0, 0, 1, 1.1368683772161603e-13, 5.684341886080802e-14)">
		<path d="M1149.9,103.9C882,103.9,664.9,321,664.9,589c0,267.9,217.2,485.1,485.1,485.1c267.9,0,485.1-217.2,485.1-485.1&#10;&#9;&#9;&#9;C1635.1,321,1417.9,103.9,1149.9,103.9z M1149.9,602.6c-7.5,0-13.6-6.1-13.6-13.6c0-7.5,6.1-13.6,13.6-13.6&#10;&#9;&#9;&#9;c7.5,0,13.6,6.1,13.6,13.6C1163.6,596.5,1157.5,602.6,1149.9,602.6z"/>
		<g>
			<path d="M 1619 589 A 469 469 0 0 1 1150 1058 A 469 469 0 0 1 681 589 A 469 469 0 0 1 1150 120 A 469 469 0 0 1 1619 589 Z" class="st0" style="fill: none; stroke: rgb(65, 64, 66); stroke-width: 0.9939; stroke-miterlimit: 10;"/>
			<path d="M 1614.300018 589 A 464.399994 464.399994 0 0 1 1149.900024 1053.399994 A 464.399994 464.399994 0 0 1 685.500031 589 A 464.399994 464.399994 0 0 1 1149.900024 124.600006 A 464.399994 464.399994 0 0 1 1614.300018 589 Z" class="st0" style="fill: none; stroke: rgb(65, 64, 66); stroke-width: 0.9939; stroke-miterlimit: 10;"/>
			<path class="st0" d="M1153.1,1048.7c-253.9,1.7-461.2-202.7-462.9-456.6c-1.7-253.9,202.7-461.2,456.6-462.9&#10;&#9;&#9;&#9;&#9;c253.9-1.7,461.2,202.7,462.9,456.6C1611.4,839.7,1407,1047,1153.1,1048.7z" style="fill: none; stroke: rgb(65, 64, 66); stroke-width: 0.9939; stroke-miterlimit: 10;"/>
			<path d="M 1605.000031 589 A 455.100006 455.100006 0 0 1 1149.900024 1044.100006 A 455.100006 455.100006 0 0 1 694.800018 589 A 455.100006 455.100006 0 0 1 1149.900024 133.899994 A 455.100006 455.100006 0 0 1 1605.000031 589 Z" class="st0" style="fill: none; stroke: rgb(65, 64, 66); stroke-width: 0.9939; stroke-miterlimit: 10;"/>
			<path d="M 1600.400024 589 A 450.5 450.5 0 0 1 1149.900024 1039.5 A 450.5 450.5 0 0 1 699.400024 589 A 450.5 450.5 0 0 1 1149.900024 138.5 A 450.5 450.5 0 0 1 1600.400024 589 Z" class="st0" style="fill: none; stroke: rgb(65, 64, 66); stroke-width: 0.9939; stroke-miterlimit: 10;"/>
			<path d="M 1595.800018 589 A 445.899994 445.899994 0 0 1 1149.900024 1034.899994 A 445.899994 445.899994 0 0 1 704.000031 589 A 445.899994 445.899994 0 0 1 1149.900024 143.100006 A 445.899994 445.899994 0 0 1 1595.800018 589 Z" class="st0" style="fill: none; stroke: rgb(65, 64, 66); stroke-width: 0.9939; stroke-miterlimit: 10;"/>
			<path d="M 1591.200012 589 A 441.299988 441.299988 0 0 1 1149.900024 1030.299988 A 441.299988 441.299988 0 0 1 708.600037 589 A 441.299988 441.299988 0 0 1 1149.900024 147.700012 A 441.299988 441.299988 0 0 1 1591.200012 589 Z" class="st0" style="fill: none; stroke: rgb(65, 64, 66); stroke-width: 0.9939; stroke-miterlimit: 10;"/>
			<path d="M 1586.600037 589 A 436.700012 436.700012 0 0 1 1149.900024 1025.700012 A 436.700012 436.700012 0 0 1 713.200012 589 A 436.700012 436.700012 0 0 1 1149.900024 152.299988 A 436.700012 436.700012 0 0 1 1586.600037 589 Z" class="st0" style="fill: none; stroke: rgb(65, 64, 66); stroke-width: 0.9939; stroke-miterlimit: 10;"/>
			<path d="M 1582.000031 589 A 432.100006 432.100006 0 0 1 1149.900024 1021.100006 A 432.100006 432.100006 0 0 1 717.800018 589 A 432.100006 432.100006 0 0 1 1149.900024 156.899994 A 432.100006 432.100006 0 0 1 1582.000031 589 Z" class="st0" style="fill: none; stroke: rgb(65, 64, 66); stroke-width: 0.9939; stroke-miterlimit: 10;"/>
			<path d="M 1577.400024 589 A 427.5 427.5 0 0 1 1149.900024 1016.5 A 427.5 427.5 0 0 1 722.400024 589 A 427.5 427.5 0 0 1 1149.900024 161.5 A 427.5 427.5 0 0 1 1577.400024 589 Z" class="st0" style="fill: none; stroke: rgb(65, 64, 66); stroke-width: 0.9939; stroke-miterlimit: 10;"/>
			<path d="M 1572.800018 589 A 422.899994 422.899994 0 0 1 1149.900024 1011.899994 A 422.899994 422.899994 0 0 1 727.000031 589 A 422.899994 422.899994 0 0 1 1149.900024 166.100006 A 422.899994 422.899994 0 0 1 1572.800018 589 Z" class="st0" style="fill: none; stroke: rgb(65, 64, 66); stroke-width: 0.9939; stroke-miterlimit: 10;"/>
			<path d="M 1568.200012 589 A 418.299988 418.299988 0 0 1 1149.900024 1007.299988 A 418.299988 418.299988 0 0 1 731.600037 589 A 418.299988 418.299988 0 0 1 1149.900024 170.700012 A 418.299988 418.299988 0 0 1 1568.200012 589 Z" class="st0" style="fill: none; stroke: rgb(65, 64, 66); stroke-width: 0.9939; stroke-miterlimit: 10;"/>
			<path d="M 1563.600037 589 A 413.700012 413.700012 0 0 1 1149.900024 1002.700012 A 413.700012 413.700012 0 0 1 736.200012 589 A 413.700012 413.700012 0 0 1 1149.900024 175.299988 A 413.700012 413.700012 0 0 1 1563.600037 589 Z" class="st0" style="fill: none; stroke: rgb(65, 64, 66); stroke-width: 0.9939; stroke-miterlimit: 10;"/>
			<path d="M 1559.100037 589 A 409.200012 409.200012 0 0 1 1149.900024 998.200012 A 409.200012 409.200012 0 0 1 740.700012 589 A 409.200012 409.200012 0 0 1 1149.900024 179.799988 A 409.200012 409.200012 0 0 1 1559.100037 589 Z" class="st0" style="fill: none; stroke: rgb(65, 64, 66); stroke-width: 0.9939; stroke-miterlimit: 10;"/>
			<path d="M 1554.500031 589 A 404.600006 404.600006 0 0 1 1149.900024 993.600006 A 404.600006 404.600006 0 0 1 745.300018 589 A 404.600006 404.600006 0 0 1 1149.900024 184.399994 A 404.600006 404.600006 0 0 1 1554.500031 589 Z" class="st0" style="fill: none; stroke: rgb(65, 64, 66); stroke-width: 0.9939; stroke-miterlimit: 10;"/>
			<path d="M 1550.000031 589 A 400.100006 400.100006 0 0 1 1149.900024 989.100006 A 400.100006 400.100006 0 0 1 749.800018 589 A 400.100006 400.100006 0 0 1 1149.900024 188.899994 A 400.100006 400.100006 0 0 1 1550.000031 589 Z" class="st0" style="fill: none; stroke: rgb(65, 64, 66); stroke-width: 0.9939; stroke-miterlimit: 10;"/>
			<path d="M 1545.5 589 A 395.5 395.5 0 0 1 1150 984.5 A 395.5 395.5 0 0 1 754.5 589 A 395.5 395.5 0 0 1 1150 193.5 A 395.5 395.5 0 0 1 1545.5 589 Z" class="st0" style="fill: none; stroke: rgb(65, 64, 66); stroke-width: 0.9939; stroke-miterlimit: 10;"/>
			<path d="M 1540.900024 589 A 391 391 0 0 1 1149.900024 980 A 391 391 0 0 1 758.900024 589 A 391 391 0 0 1 1149.900024 198 A 391 391 0 0 1 1540.900024 589 Z" class="st0" style="fill: none; stroke: rgb(65, 64, 66); stroke-width: 0.9939; stroke-miterlimit: 10;"/>
			<path d="M 1536.400024 589 A 386.5 386.5 0 0 1 1149.900024 975.5 A 386.5 386.5 0 0 1 763.400024 589 A 386.5 386.5 0 0 1 1149.900024 202.5 A 386.5 386.5 0 0 1 1536.400024 589 Z" class="st0" style="fill: none; stroke: rgb(65, 64, 66); stroke-width: 0.9939; stroke-miterlimit: 10;"/>
			<path d="M 1531.900024 589 A 382 382 0 0 1 1149.900024 971 A 382 382 0 0 1 767.900024 589 A 382 382 0 0 1 1149.900024 207 A 382 382 0 0 1 1531.900024 589 Z" class="st0" style="fill: none; stroke: rgb(65, 64, 66); stroke-width: 0.9939; stroke-miterlimit: 10;"/>
			<path d="M 1527.400024 589 A 377.5 377.5 0 0 1 1149.900024 966.5 A 377.5 377.5 0 0 1 772.400024 589 A 377.5 377.5 0 0 1 1149.900024 211.5 A 377.5 377.5 0 0 1 1527.400024 589 Z" class="st0" style="fill: none; stroke: rgb(65, 64, 66); stroke-width: 0.9939; stroke-miterlimit: 10;"/>
			<path d="M 1522.900024 589 A 373 373 0 0 1 1149.900024 962 A 373 373 0 0 1 776.900024 589 A 373 373 0 0 1 1149.900024 216 A 373 373 0 0 1 1522.900024 589 Z" class="st0" style="fill: none; stroke: rgb(65, 64, 66); stroke-width: 0.9939; stroke-miterlimit: 10;"/>
			<path d="M 1518.5 589 A 368.5 368.5 0 0 1 1150 957.5 A 368.5 368.5 0 0 1 781.5 589 A 368.5 368.5 0 0 1 1150 220.5 A 368.5 368.5 0 0 1 1518.5 589 Z" class="st0" style="fill: none; stroke: rgb(65, 64, 66); stroke-width: 0.9939; stroke-miterlimit: 10;"/>
			<path d="M 1513.900024 589 A 364 364 0 0 1 1149.900024 953 A 364 364 0 0 1 785.900024 589 A 364 364 0 0 1 1149.900024 225 A 364 364 0 0 1 1513.900024 589 Z" class="st0" style="fill: none; stroke: rgb(65, 64, 66); stroke-width: 0.9939; stroke-miterlimit: 10;"/>
			<path d="M 1509.600006 589 A 359.600006 359.600006 0 0 1 1150 948.600006 A 359.600006 359.600006 0 0 1 790.399994 589 A 359.600006 359.600006 0 0 1 1150 229.399994 A 359.600006 359.600006 0 0 1 1509.600006 589 Z" class="st0" style="fill: none; stroke: rgb(65, 64, 66); stroke-width: 0.9939; stroke-miterlimit: 10;"/>
			<path d="M 1505.000031 589 A 355.100006 355.100006 0 0 1 1149.900024 944.100006 A 355.100006 355.100006 0 0 1 794.800018 589 A 355.100006 355.100006 0 0 1 1149.900024 233.899994 A 355.100006 355.100006 0 0 1 1505.000031 589 Z" class="st0" style="fill: none; stroke: rgb(65, 64, 66); stroke-width: 0.9939; stroke-miterlimit: 10;"/>
			<path d="M 1500.600037 589 A 350.700012 350.700012 0 0 1 1149.900024 939.700012 A 350.700012 350.700012 0 0 1 799.200012 589 A 350.700012 350.700012 0 0 1 1149.900024 238.299988 A 350.700012 350.700012 0 0 1 1500.600037 589 Z" class="st0" style="fill: none; stroke: rgb(65, 64, 66); stroke-width: 0.9939; stroke-miterlimit: 10;"/>
			<path d="M 1496.200012 589 A 346.299988 346.299988 0 0 1 1149.900024 935.299988 A 346.299988 346.299988 0 0 1 803.600037 589 A 346.299988 346.299988 0 0 1 1149.900024 242.700012 A 346.299988 346.299988 0 0 1 1496.200012 589 Z" class="st0" style="fill: none; stroke: rgb(65, 64, 66); stroke-width: 0.9939; stroke-miterlimit: 10;"/>
			<path d="M 1491.800018 589 A 341.899994 341.899994 0 0 1 1149.900024 930.899994 A 341.899994 341.899994 0 0 1 808.000031 589 A 341.899994 341.899994 0 0 1 1149.900024 247.100006 A 341.899994 341.899994 0 0 1 1491.800018 589 Z" class="st0" style="fill: none; stroke: rgb(65, 64, 66); stroke-width: 0.9939; stroke-miterlimit: 10;"/>
			<path d="M 1487.5 589 A 337.5 337.5 0 0 1 1150 926.5 A 337.5 337.5 0 0 1 812.5 589 A 337.5 337.5 0 0 1 1150 251.5 A 337.5 337.5 0 0 1 1487.5 589 Z" class="st0" style="fill: none; stroke: rgb(65, 64, 66); stroke-width: 0.9939; stroke-miterlimit: 10;"/>
			<path d="M 1483.000031 589 A 333.100006 333.100006 0 0 1 1149.900024 922.100006 A 333.100006 333.100006 0 0 1 816.800018 589 A 333.100006 333.100006 0 0 1 1149.900024 255.899994 A 333.100006 333.100006 0 0 1 1483.000031 589 Z" class="st0" style="fill: none; stroke: rgb(65, 64, 66); stroke-width: 0.9939; stroke-miterlimit: 10;"/>
			<path d="M 1478.600037 589 A 328.700012 328.700012 0 0 1 1149.900024 917.700012 A 328.700012 328.700012 0 0 1 821.200012 589 A 328.700012 328.700012 0 0 1 1149.900024 260.299988 A 328.700012 328.700012 0 0 1 1478.600037 589 Z" class="st0" style="fill: none; stroke: rgb(65, 64, 66); stroke-width: 0.9939; stroke-miterlimit: 10;"/>
			<path d="M 1474.399994 589 A 324.399994 324.399994 0 0 1 1150 913.399994 A 324.399994 324.399994 0 0 1 825.600006 589 A 324.399994 324.399994 0 0 1 1150 264.600006 A 324.399994 324.399994 0 0 1 1474.399994 589 Z" class="st0" style="fill: none; stroke: rgb(65, 64, 66); stroke-width: 0.9939; stroke-miterlimit: 10;"/>
			<path d="M 1469.900024 589 A 320 320 0 0 1 1149.900024 909 A 320 320 0 0 1 829.900024 589 A 320 320 0 0 1 1149.900024 269 A 320 320 0 0 1 1469.900024 589 Z" class="st0" style="fill: none; stroke: rgb(65, 64, 66); stroke-width: 0.9939; stroke-miterlimit: 10;"/>
			<path d="M 1465.600037 589 A 315.700012 315.700012 0 0 1 1149.900024 904.700012 A 315.700012 315.700012 0 0 1 834.200012 589 A 315.700012 315.700012 0 0 1 1149.900024 273.299988 A 315.700012 315.700012 0 0 1 1465.600037 589 Z" class="st0" style="fill: none; stroke: rgb(65, 64, 66); stroke-width: 0.9939; stroke-miterlimit: 10;"/>
			<path d="M 1461.399994 589 A 311.399994 311.399994 0 0 1 1150 900.399994 A 311.399994 311.399994 0 0 1 838.600006 589 A 311.399994 311.399994 0 0 1 1150 277.600006 A 311.399994 311.399994 0 0 1 1461.399994 589 Z" class="st0" style="fill: none; stroke: rgb(65, 64, 66); stroke-width: 0.9939; stroke-miterlimit: 10;"/>
			<path d="M 1457.100006 589 A 307.100006 307.100006 0 0 1 1150 896.100006 A 307.100006 307.100006 0 0 1 842.899994 589 A 307.100006 307.100006 0 0 1 1150 281.899994 A 307.100006 307.100006 0 0 1 1457.100006 589 Z" class="st0" style="fill: none; stroke: rgb(65, 64, 66); stroke-width: 0.9939; stroke-miterlimit: 10;"/>
			<path d="M 1452.899994 589 A 302.899994 302.899994 0 0 1 1150 891.899994 A 302.899994 302.899994 0 0 1 847.100006 589 A 302.899994 302.899994 0 0 1 1150 286.100006 A 302.899994 302.899994 0 0 1 1452.899994 589 Z" class="st0" style="fill: none; stroke: rgb(65, 64, 66); stroke-width: 0.9939; stroke-miterlimit: 10;"/>
			<path d="M 1448.500031 589 A 298.600006 298.600006 0 0 1 1149.900024 887.600006 A 298.600006 298.600006 0 0 1 851.300018 589 A 298.600006 298.600006 0 0 1 1149.900024 290.399994 A 298.600006 298.600006 0 0 1 1448.500031 589 Z" class="st0" style="fill: none; stroke: rgb(65, 64, 66); stroke-width: 0.9939; stroke-miterlimit: 10;"/>
			<path d="M 1444.300018 589 A 294.399994 294.399994 0 0 1 1149.900024 883.399994 A 294.399994 294.399994 0 0 1 855.500031 589 A 294.399994 294.399994 0 0 1 1149.900024 294.600006 A 294.399994 294.399994 0 0 1 1444.300018 589 Z" class="st0" style="fill: none; stroke: rgb(65, 64, 66); stroke-width: 0.9939; stroke-miterlimit: 10;"/>
			<path d="M 1440.100037 589 A 290.200012 290.200012 0 0 1 1149.900024 879.200012 A 290.200012 290.200012 0 0 1 859.700012 589 A 290.200012 290.200012 0 0 1 1149.900024 298.799988 A 290.200012 290.200012 0 0 1 1440.100037 589 Z" class="st0" style="fill: none; stroke: rgb(65, 64, 66); stroke-width: 0.9939; stroke-miterlimit: 10;"/>
			<path d="M 1436 589 A 286 286 0 0 1 1150 875 A 286 286 0 0 1 864 589 A 286 286 0 0 1 1150 303 A 286 286 0 0 1 1436 589 Z" class="st0" style="fill: none; stroke: rgb(65, 64, 66); stroke-width: 0.9939; stroke-miterlimit: 10;"/>
			<path d="M 1431.700012 589 A 281.799988 281.799988 0 0 1 1149.900024 870.799988 A 281.799988 281.799988 0 0 1 868.100037 589 A 281.799988 281.799988 0 0 1 1149.900024 307.200012 A 281.799988 281.799988 0 0 1 1431.700012 589 Z" class="st0" style="fill: none; stroke: rgb(65, 64, 66); stroke-width: 0.9939; stroke-miterlimit: 10;"/>
			<path d="M 1427.700012 589 A 277.700012 277.700012 0 0 1 1150 866.700012 A 277.700012 277.700012 0 0 1 872.299988 589 A 277.700012 277.700012 0 0 1 1150 311.299988 A 277.700012 277.700012 0 0 1 1427.700012 589 Z" class="st0" style="fill: none; stroke: rgb(65, 64, 66); stroke-width: 0.9939; stroke-miterlimit: 10;"/>
			<path d="M 1423.600006 589 A 273.600006 273.600006 0 0 1 1150 862.600006 A 273.600006 273.600006 0 0 1 876.399994 589 A 273.600006 273.600006 0 0 1 1150 315.399994 A 273.600006 273.600006 0 0 1 1423.600006 589 Z" class="st0" style="fill: none; stroke: rgb(65, 64, 66); stroke-width: 0.9939; stroke-miterlimit: 10;"/>
			<path d="M 1419.5 589 A 269.5 269.5 0 0 1 1150 858.5 A 269.5 269.5 0 0 1 880.5 589 A 269.5 269.5 0 0 1 1150 319.5 A 269.5 269.5 0 0 1 1419.5 589 Z" class="st0" style="fill: none; stroke: rgb(65, 64, 66); stroke-width: 0.9939; stroke-miterlimit: 10;"/>
			<path d="M 1415.400024 589 A 265.5 265.5 0 0 1 1149.900024 854.5 A 265.5 265.5 0 0 1 884.400024 589 A 265.5 265.5 0 0 1 1149.900024 323.5 A 265.5 265.5 0 0 1 1415.400024 589 Z" class="st0" style="fill: none; stroke: rgb(65, 64, 66); stroke-width: 0.9939; stroke-miterlimit: 10;"/>
			<path d="M 1411.300018 589 A 261.399994 261.399994 0 0 1 1149.900024 850.399994 A 261.399994 261.399994 0 0 1 888.500031 589 A 261.399994 261.399994 0 0 1 1149.900024 327.600006 A 261.399994 261.399994 0 0 1 1411.300018 589 Z" class="st0" style="fill: none; stroke: rgb(65, 64, 66); stroke-width: 0.9939; stroke-miterlimit: 10;"/>
			<path d="M 1407.399994 589 A 257.399994 257.399994 0 0 1 1150 846.399994 A 257.399994 257.399994 0 0 1 892.600006 589 A 257.399994 257.399994 0 0 1 1150 331.600006 A 257.399994 257.399994 0 0 1 1407.399994 589 Z" class="st0" style="fill: none; stroke: rgb(65, 64, 66); stroke-width: 0.9939; stroke-miterlimit: 10;"/>
			<path d="M 1403.5 589 A 253.5 253.5 0 0 1 1150 842.5 A 253.5 253.5 0 0 1 896.5 589 A 253.5 253.5 0 0 1 1150 335.5 A 253.5 253.5 0 0 1 1403.5 589 Z" class="st0" style="fill: none; stroke: rgb(65, 64, 66); stroke-width: 0.9939; stroke-miterlimit: 10;"/>
			<path d="M 1399.400024 589 A 249.5 249.5 0 0 1 1149.900024 838.5 A 249.5 249.5 0 0 1 900.400024 589 A 249.5 249.5 0 0 1 1149.900024 339.5 A 249.5 249.5 0 0 1 1399.400024 589 Z" class="st0" style="fill: none; stroke: rgb(65, 64, 66); stroke-width: 0.9939; stroke-miterlimit: 10;"/>
			<path d="M 1395.600021 589 A 245.699997 245.699997 0 0 1 1149.900024 834.699997 A 245.699997 245.699997 0 0 1 904.200027 589 A 245.699997 245.699997 0 0 1 1149.900024 343.300003 A 245.699997 245.699997 0 0 1 1395.600021 589 Z" class="st0" style="fill: none; stroke: rgb(65, 64, 66); stroke-width: 0.9939; stroke-miterlimit: 10;"/>
			<path d="M 1391.800003 589 A 241.800003 241.800003 0 0 1 1150 830.800003 A 241.800003 241.800003 0 0 1 908.199997 589 A 241.800003 241.800003 0 0 1 1150 347.199997 A 241.800003 241.800003 0 0 1 1391.800003 589 Z" class="st0" style="fill: none; stroke: rgb(65, 64, 66); stroke-width: 0.9939; stroke-miterlimit: 10;"/>
			<path d="M 1388 589 A 238 238 0 0 1 1150 827 A 238 238 0 0 1 912 589 A 238 238 0 0 1 1150 351 A 238 238 0 0 1 1388 589 Z" class="st0" style="fill: none; stroke: rgb(65, 64, 66); stroke-width: 0.9939; stroke-miterlimit: 10;"/>
			<path d="M 1384.100021 589 A 234.199997 234.199997 0 0 1 1149.900024 823.199997 A 234.199997 234.199997 0 0 1 915.700027 589 A 234.199997 234.199997 0 0 1 1149.900024 354.800003 A 234.199997 234.199997 0 0 1 1384.100021 589 Z" class="st0" style="fill: none; stroke: rgb(65, 64, 66); stroke-width: 0.9939; stroke-miterlimit: 10;"/>
			<path d="M 1380.5 589 A 230.5 230.5 0 0 1 1150 819.5 A 230.5 230.5 0 0 1 919.5 589 A 230.5 230.5 0 0 1 1150 358.5 A 230.5 230.5 0 0 1 1380.5 589 Z" class="st0" style="fill: none; stroke: rgb(65, 64, 66); stroke-width: 0.9939; stroke-miterlimit: 10;"/>
			<path d="M 1376.800003 589 A 226.800003 226.800003 0 0 1 1150 815.800003 A 226.800003 226.800003 0 0 1 923.199997 589 A 226.800003 226.800003 0 0 1 1150 362.199997 A 226.800003 226.800003 0 0 1 1376.800003 589 Z" class="st0" style="fill: none; stroke: rgb(65, 64, 66); stroke-width: 0.9939; stroke-miterlimit: 10;"/>
			<path d="M 1373.000031 589 A 223.100006 223.100006 0 0 1 1149.900024 812.100006 A 223.100006 223.100006 0 0 1 926.800018 589 A 223.100006 223.100006 0 0 1 1149.900024 365.899994 A 223.100006 223.100006 0 0 1 1373.000031 589 Z" class="st0" style="fill: none; stroke: rgb(65, 64, 66); stroke-width: 0.9939; stroke-miterlimit: 10;"/>
			<path d="M 1369.400024 589 A 219.5 219.5 0 0 1 1149.900024 808.5 A 219.5 219.5 0 0 1 930.400024 589 A 219.5 219.5 0 0 1 1149.900024 369.5 A 219.5 219.5 0 0 1 1369.400024 589 Z" class="st0" style="fill: none; stroke: rgb(65, 64, 66); stroke-width: 0.9939; stroke-miterlimit: 10;"/>
			<path d="M 1366 589 A 216 216 0 0 1 1150 805 A 216 216 0 0 1 934 589 A 216 216 0 0 1 1150 373 A 216 216 0 0 1 1366 589 Z" class="st0" style="fill: none; stroke: rgb(65, 64, 66); stroke-width: 0.9939; stroke-miterlimit: 10;"/>
			<path d="M 1362.5 589 A 212.5 212.5 0 0 1 1150 801.5 A 212.5 212.5 0 0 1 937.5 589 A 212.5 212.5 0 0 1 1150 376.5 A 212.5 212.5 0 0 1 1362.5 589 Z" class="st0" style="fill: none; stroke: rgb(65, 64, 66); stroke-width: 0.9939; stroke-miterlimit: 10;"/>
			<path d="M 1359.100006 589 A 209.100006 209.100006 0 0 1 1150 798.100006 A 209.100006 209.100006 0 0 1 940.899994 589 A 209.100006 209.100006 0 0 1 1150 379.899994 A 209.100006 209.100006 0 0 1 1359.100006 589 Z" class="st0" style="fill: none; stroke: rgb(65, 64, 66); stroke-width: 0.9939; stroke-miterlimit: 10;"/>
			<path d="M 1355.699997 589 A 205.699997 205.699997 0 0 1 1150 794.699997 A 205.699997 205.699997 0 0 1 944.300003 589 A 205.699997 205.699997 0 0 1 1150 383.300003 A 205.699997 205.699997 0 0 1 1355.699997 589 Z" class="st0" style="fill: none; stroke: rgb(65, 64, 66); stroke-width: 0.9939; stroke-miterlimit: 10;"/>
			<path d="M 1352.300018 589 A 202.399994 202.399994 0 0 1 1149.900024 791.399994 A 202.399994 202.399994 0 0 1 947.500031 589 A 202.399994 202.399994 0 0 1 1149.900024 386.600006 A 202.399994 202.399994 0 0 1 1352.300018 589 Z" class="st0" style="fill: none; stroke: rgb(65, 64, 66); stroke-width: 0.9939; stroke-miterlimit: 10;"/>
			<path d="M 1349.100006 589 A 199.100006 199.100006 0 0 1 1150 788.100006 A 199.100006 199.100006 0 0 1 950.899994 589 A 199.100006 199.100006 0 0 1 1150 389.899994 A 199.100006 199.100006 0 0 1 1349.100006 589 Z" class="st0" style="fill: none; stroke: rgb(65, 64, 66); stroke-width: 0.9939; stroke-miterlimit: 10;"/>
			<path d="M 1345.899994 589 A 195.899994 195.899994 0 0 1 1150 784.899994 A 195.899994 195.899994 0 0 1 954.100006 589 A 195.899994 195.899994 0 0 1 1150 393.100006 A 195.899994 195.899994 0 0 1 1345.899994 589 Z" class="st0" style="fill: none; stroke: rgb(65, 64, 66); stroke-width: 0.9939; stroke-miterlimit: 10;"/>
			<path d="M 1342.800003 589 A 192.800003 192.800003 0 0 1 1150 781.800003 A 192.800003 192.800003 0 0 1 957.199997 589 A 192.800003 192.800003 0 0 1 1150 396.199997 A 192.800003 192.800003 0 0 1 1342.800003 589 Z" class="st0" style="fill: none; stroke: rgb(65, 64, 66); stroke-width: 0.9939; stroke-miterlimit: 10;"/>
			<path d="M 1339.800003 589 A 189.800003 189.800003 0 0 1 1150 778.800003 A 189.800003 189.800003 0 0 1 960.199997 589 A 189.800003 189.800003 0 0 1 1150 399.199997 A 189.800003 189.800003 0 0 1 1339.800003 589 Z" class="st0" style="fill: none; stroke: rgb(65, 64, 66); stroke-width: 0.9939; stroke-miterlimit: 10;"/>
			<path d="M 1336.899994 589 A 186.899994 186.899994 0 0 1 1150 775.899994 A 186.899994 186.899994 0 0 1 963.100006 589 A 186.899994 186.899994 0 0 1 1150 402.100006 A 186.899994 186.899994 0 0 1 1336.899994 589 Z" class="st0" style="fill: none; stroke: rgb(65, 64, 66); stroke-width: 0.9939; stroke-miterlimit: 10;"/>
			<path d="M 1334 589 A 184 184 0 0 1 1150 773 A 184 184 0 0 1 966 589 A 184 184 0 0 1 1150 405 A 184 184 0 0 1 1334 589 Z" class="st0" style="fill: none; stroke: rgb(65, 64, 66); stroke-width: 0.9939; stroke-miterlimit: 10;"/>
			<path d="M 1331.199997 589 A 181.199997 181.199997 0 0 1 1150 770.199997 A 181.199997 181.199997 0 0 1 968.800003 589 A 181.199997 181.199997 0 0 1 1150 407.800003 A 181.199997 181.199997 0 0 1 1331.199997 589 Z" class="st0" style="fill: none; stroke: rgb(65, 64, 66); stroke-width: 0.9939; stroke-miterlimit: 10;"/>
			<path d="M 1328.5 589 A 178.5 178.5 0 0 1 1150 767.5 A 178.5 178.5 0 0 1 971.5 589 A 178.5 178.5 0 0 1 1150 410.5 A 178.5 178.5 0 0 1 1328.5 589 Z" class="st0" style="fill: none; stroke: rgb(65, 64, 66); stroke-width: 0.9939; stroke-miterlimit: 10;"/>
			<path d="M 1325.899994 589 A 175.899994 175.899994 0 0 1 1150 764.899994 A 175.899994 175.899994 0 0 1 974.100006 589 A 175.899994 175.899994 0 0 1 1150 413.100006 A 175.899994 175.899994 0 0 1 1325.899994 589 Z" class="st0" style="fill: none; stroke: rgb(65, 64, 66); stroke-width: 0.9939; stroke-miterlimit: 10;"/>
			<path d="M 1323.399994 589 A 173.399994 173.399994 0 0 1 1150 762.399994 A 173.399994 173.399994 0 0 1 976.600006 589 A 173.399994 173.399994 0 0 1 1150 415.600006 A 173.399994 173.399994 0 0 1 1323.399994 589 Z" class="st0" style="fill: none; stroke: rgb(65, 64, 66); stroke-width: 0.9939; stroke-miterlimit: 10;"/>
			<path d="M 1320.900024 589 A 171 171 0 0 1 1149.900024 760 A 171 171 0 0 1 978.900024 589 A 171 171 0 0 1 1149.900024 418 A 171 171 0 0 1 1320.900024 589 Z" class="st0" style="fill: none; stroke: rgb(65, 64, 66); stroke-width: 0.9939; stroke-miterlimit: 10;"/>
			<path d="M 1318.800003 589 A 168.800003 168.800003 0 0 1 1150 757.800003 A 168.800003 168.800003 0 0 1 981.199997 589 A 168.800003 168.800003 0 0 1 1150 420.199997 A 168.800003 168.800003 0 0 1 1318.800003 589 Z" class="st0" style="fill: none; stroke: rgb(65, 64, 66); stroke-width: 0.9939; stroke-miterlimit: 10;"/>
			<path d="M 1316.600006 589 A 166.600006 166.600006 0 0 1 1150 755.600006 A 166.600006 166.600006 0 0 1 983.399994 589 A 166.600006 166.600006 0 0 1 1150 422.399994 A 166.600006 166.600006 0 0 1 1316.600006 589 Z" class="st0" style="fill: none; stroke: rgb(65, 64, 66); stroke-width: 0.9939; stroke-miterlimit: 10;"/>
			<path d="M 1314.5 589 A 164.5 164.5 0 0 1 1150 753.5 A 164.5 164.5 0 0 1 985.5 589 A 164.5 164.5 0 0 1 1150 424.5 A 164.5 164.5 0 0 1 1314.5 589 Z" class="st0" style="fill: none; stroke: rgb(65, 64, 66); stroke-width: 0.9939; stroke-miterlimit: 10;"/>
			<path d="M 1312.600006 589 A 162.600006 162.600006 0 0 1 1150 751.600006 A 162.600006 162.600006 0 0 1 987.399994 589 A 162.600006 162.600006 0 0 1 1150 426.399994 A 162.600006 162.600006 0 0 1 1312.600006 589 Z" class="st0" style="fill: none; stroke: rgb(65, 64, 66); stroke-width: 0.9939; stroke-miterlimit: 10;"/>
			<path d="M 1310.800003 589 A 160.800003 160.800003 0 0 1 1150 749.800003 A 160.800003 160.800003 0 0 1 989.199997 589 A 160.800003 160.800003 0 0 1 1150 428.199997 A 160.800003 160.800003 0 0 1 1310.800003 589 Z" class="st0" style="fill: none; stroke: rgb(65, 64, 66); stroke-width: 0.9939; stroke-miterlimit: 10;"/>
			<path d="M 1309.100006 589 A 159.100006 159.100006 0 0 1 1150 748.100006 A 159.100006 159.100006 0 0 1 990.899994 589 A 159.100006 159.100006 0 0 1 1150 429.899994 A 159.100006 159.100006 0 0 1 1309.100006 589 Z" class="st0" style="fill: none; stroke: rgb(65, 64, 66); stroke-width: 0.9939; stroke-miterlimit: 10;"/>
			<path d="M 1307.600006 589 A 157.600006 157.600006 0 0 1 1150 746.600006 A 157.600006 157.600006 0 0 1 992.399994 589 A 157.600006 157.600006 0 0 1 1150 431.399994 A 157.600006 157.600006 0 0 1 1307.600006 589 Z" class="st0" style="fill: none; stroke: rgb(65, 64, 66); stroke-width: 0.9939; stroke-miterlimit: 10;"/>
			<path d="M 1306.100021 589 A 156.199997 156.199997 0 0 1 1149.900024 745.199997 A 156.199997 156.199997 0 0 1 993.700027 589 A 156.199997 156.199997 0 0 1 1149.900024 432.800003 A 156.199997 156.199997 0 0 1 1306.100021 589 Z" class="st0" style="fill: none; stroke: rgb(65, 64, 66); stroke-width: 0.9939; stroke-miterlimit: 10;"/>
			<path d="M 1305 589 A 155 155 0 0 1 1150 744 A 155 155 0 0 1 995 589 A 155 155 0 0 1 1150 434 A 155 155 0 0 1 1305 589 Z" class="st0" style="fill: none; stroke: rgb(65, 64, 66); stroke-width: 0.9939; stroke-miterlimit: 10;"/>
			<path d="M 1303.899994 589 A 153.899994 153.899994 0 0 1 1150 742.899994 A 153.899994 153.899994 0 0 1 996.100006 589 A 153.899994 153.899994 0 0 1 1150 435.100006 A 153.899994 153.899994 0 0 1 1303.899994 589 Z" class="st0" style="fill: none; stroke: rgb(65, 64, 66); stroke-width: 0.9939; stroke-miterlimit: 10;"/>
			<path d="M 1302.899994 589 A 152.899994 152.899994 0 0 1 1150 741.899994 A 152.899994 152.899994 0 0 1 997.100006 589 A 152.899994 152.899994 0 0 1 1150 436.100006 A 152.899994 152.899994 0 0 1 1302.899994 589 Z" class="st0" style="fill: none; stroke: rgb(65, 64, 66); stroke-width: 0.9939; stroke-miterlimit: 10;"/>
			<path d="M 1302.100006 589 A 152.100006 152.100006 0 0 1 1150 741.100006 A 152.100006 152.100006 0 0 1 997.899994 589 A 152.100006 152.100006 0 0 1 1150 436.899994 A 152.100006 152.100006 0 0 1 1302.100006 589 Z" class="st0" style="fill: none; stroke: rgb(65, 64, 66); stroke-width: 0.9939; stroke-miterlimit: 10;"/>
			<path d="M 1301.399994 589 A 151.399994 151.399994 0 0 1 1150 740.399994 A 151.399994 151.399994 0 0 1 998.600006 589 A 151.399994 151.399994 0 0 1 1150 437.600006 A 151.399994 151.399994 0 0 1 1301.399994 589 Z" class="st0" style="fill: none; stroke: rgb(65, 64, 66); stroke-width: 0.9939; stroke-miterlimit: 10;"/>
			<path d="M 1300.899994 589 A 150.899994 150.899994 0 0 1 1150 739.899994 A 150.899994 150.899994 0 0 1 999.100006 589 A 150.899994 150.899994 0 0 1 1150 438.100006 A 150.899994 150.899994 0 0 1 1300.899994 589 Z" class="st0" style="fill: none; stroke: rgb(65, 64, 66); stroke-width: 0.9939; stroke-miterlimit: 10;"/>
			<path d="M 1300.600006 589 A 150.600006 150.600006 0 0 1 1150 739.600006 A 150.600006 150.600006 0 0 1 999.399994 589 A 150.600006 150.600006 0 0 1 1150 438.399994 A 150.600006 150.600006 0 0 1 1300.600006 589 Z" class="st0" style="fill: none; stroke: rgb(65, 64, 66); stroke-width: 0.9939; stroke-miterlimit: 10;"/>
			<path d="M 1300.399994 589 A 150.399994 150.399994 0 0 1 1150 739.399994 A 150.399994 150.399994 0 0 1 999.600006 589 A 150.399994 150.399994 0 0 1 1150 438.600006 A 150.399994 150.399994 0 0 1 1300.399994 589 Z" class="st0" style="fill: none; stroke: rgb(65, 64, 66); stroke-width: 0.9939; stroke-miterlimit: 10;"/>
			<path d="M 1300.300018 589 A 150.399994 150.399994 0 0 1 1149.900024 739.399994 A 150.399994 150.399994 0 0 1 999.500031 589 A 150.399994 150.399994 0 0 1 1149.900024 438.600006 A 150.399994 150.399994 0 0 1 1300.300018 589 Z" class="st0" style="fill: none; stroke: rgb(65, 64, 66); stroke-width: 0.9939; stroke-miterlimit: 10;"/>
			<path d="M 1300.5 589 A 150.5 150.5 0 0 1 1150 739.5 A 150.5 150.5 0 0 1 999.5 589 A 150.5 150.5 0 0 1 1150 438.5 A 150.5 150.5 0 0 1 1300.5 589 Z" class="st0" style="fill: none; stroke: rgb(65, 64, 66); stroke-width: 0.9939; stroke-miterlimit: 10;"/>
			<path d="M 1300.800003 589 A 150.800003 150.800003 0 0 1 1150 739.800003 A 150.800003 150.800003 0 0 1 999.199997 589 A 150.800003 150.800003 0 0 1 1150 438.199997 A 150.800003 150.800003 0 0 1 1300.800003 589 Z" class="st0" style="fill: none; stroke: rgb(65, 64, 66); stroke-width: 0.9939; stroke-miterlimit: 10;"/>
			<path d="M 1301.300003 589 A 151.300003 151.300003 0 0 1 1150 740.300003 A 151.300003 151.300003 0 0 1 998.699997 589 A 151.300003 151.300003 0 0 1 1150 437.699997 A 151.300003 151.300003 0 0 1 1301.300003 589 Z" class="st0" style="fill: none; stroke: rgb(65, 64, 66); stroke-width: 0.9939; stroke-miterlimit: 10;"/>
			<path d="M 1301.899994 589 A 151.899994 151.899994 0 0 1 1150 740.899994 A 151.899994 151.899994 0 0 1 998.100006 589 A 151.899994 151.899994 0 0 1 1150 437.100006 A 151.899994 151.899994 0 0 1 1301.899994 589 Z" class="st0" style="fill: none; stroke: rgb(65, 64, 66); stroke-width: 0.9939; stroke-miterlimit: 10;"/>
			<path d="M 1302.699997 589 A 152.699997 152.699997 0 0 1 1150 741.699997 A 152.699997 152.699997 0 0 1 997.300003 589 A 152.699997 152.699997 0 0 1 1150 436.300003 A 152.699997 152.699997 0 0 1 1302.699997 589 Z" class="st0" style="fill: none; stroke: rgb(65, 64, 66); stroke-width: 0.9939; stroke-miterlimit: 10;"/>
			<path d="M 1303.600006 589 A 153.600006 153.600006 0 0 1 1150 742.600006 A 153.600006 153.600006 0 0 1 996.399994 589 A 153.600006 153.600006 0 0 1 1150 435.399994 A 153.600006 153.600006 0 0 1 1303.600006 589 Z" class="st0" style="fill: none; stroke: rgb(65, 64, 66); stroke-width: 0.9939; stroke-miterlimit: 10;"/>
			<path d="M 1304.699997 589 A 154.699997 154.699997 0 0 1 1150 743.699997 A 154.699997 154.699997 0 0 1 995.300003 589 A 154.699997 154.699997 0 0 1 1150 434.300003 A 154.699997 154.699997 0 0 1 1304.699997 589 Z" class="st0" style="fill: none; stroke: rgb(65, 64, 66); stroke-width: 0.9939; stroke-miterlimit: 10;"/>
			<path d="M 1305.899994 589 A 155.899994 155.899994 0 0 1 1150 744.899994 A 155.899994 155.899994 0 0 1 994.100006 589 A 155.899994 155.899994 0 0 1 1150 433.100006 A 155.899994 155.899994 0 0 1 1305.899994 589 Z" class="st0" style="fill: none; stroke: rgb(65, 64, 66); stroke-width: 0.9939; stroke-miterlimit: 10;"/>
			<path d="M 1307.300003 589 A 157.300003 157.300003 0 0 1 1150 746.300003 A 157.300003 157.300003 0 0 1 992.699997 589 A 157.300003 157.300003 0 0 1 1150 431.699997 A 157.300003 157.300003 0 0 1 1307.300003 589 Z" class="st0" style="fill: none; stroke: rgb(65, 64, 66); stroke-width: 0.9939; stroke-miterlimit: 10;"/>
			<path d="M 1308.800003 589 A 158.800003 158.800003 0 0 1 1150 747.800003 A 158.800003 158.800003 0 0 1 991.199997 589 A 158.800003 158.800003 0 0 1 1150 430.199997 A 158.800003 158.800003 0 0 1 1308.800003 589 Z" class="st0" style="fill: none; stroke: rgb(65, 64, 66); stroke-width: 0.9939; stroke-miterlimit: 10;"/>
		</g>
		<g>
			<path d="M 1635.100006 589 A 485.100006 485.100006 0 0 1 1150 1074.100006 A 485.100006 485.100006 0 0 1 664.899994 589 A 485.100006 485.100006 0 0 1 1150 103.899994 A 485.100006 485.100006 0 0 1 1635.100006 589 Z" class="st1" style="fill: none; stroke: rgb(40, 40, 41); stroke-width: 2.9817; stroke-miterlimit: 10;"/>
			<path d="M 1620.000031 589 A 470.100006 470.100006 0 0 1 1149.900024 1059.100006 A 470.100006 470.100006 0 0 1 679.800018 589 A 470.100006 470.100006 0 0 1 1149.900024 118.899994 A 470.100006 470.100006 0 0 1 1620.000031 589 Z" class="st1" style="fill: none; stroke: rgb(40, 40, 41); stroke-width: 2.9817; stroke-miterlimit: 10;"/>
			<path d="M 1573 589 A 423 423 0 0 1 1150 1012 A 423 423 0 0 1 727 589 A 423 423 0 0 1 1150 166 A 423 423 0 0 1 1573 589 Z" class="st1" style="fill: none; stroke: rgb(40, 40, 41); stroke-width: 2.9817; stroke-miterlimit: 10;"/>
			<path d="M 1526.800018 589 A 376.899994 376.899994 0 0 1 1149.900024 965.899994 A 376.899994 376.899994 0 0 1 773.000031 589 A 376.899994 376.899994 0 0 1 1149.900024 212.100006 A 376.899994 376.899994 0 0 1 1526.800018 589 Z" class="st1" style="fill: none; stroke: rgb(40, 40, 41); stroke-width: 2.9817; stroke-miterlimit: 10;"/>
			<path d="M 1495.700012 589 A 345.799988 345.799988 0 0 1 1149.900024 934.799988 A 345.799988 345.799988 0 0 1 804.100037 589 A 345.799988 345.799988 0 0 1 1149.900024 243.200012 A 345.799988 345.799988 0 0 1 1495.700012 589 Z" class="st1" style="fill: none; stroke: rgb(40, 40, 41); stroke-width: 2.9817; stroke-miterlimit: 10;"/>
			<path d="M 1457.100037 589 A 307.200012 307.200012 0 0 1 1149.900024 896.200012 A 307.200012 307.200012 0 0 1 842.700012 589 A 307.200012 307.200012 0 0 1 1149.900024 281.799988 A 307.200012 307.200012 0 0 1 1457.100037 589 Z" class="st1" style="fill: none; stroke: rgb(40, 40, 41); stroke-width: 2.9817; stroke-miterlimit: 10;"/>
			<path d="M 1421.400024 589 A 271.5 271.5 0 0 1 1149.900024 860.5 A 271.5 271.5 0 0 1 878.400024 589 A 271.5 271.5 0 0 1 1149.900024 317.5 A 271.5 271.5 0 0 1 1421.400024 589 Z" class="st1" style="fill: none; stroke: rgb(40, 40, 41); stroke-width: 2.9817; stroke-miterlimit: 10;"/>
			<path d="M 1394.199997 589 A 244.199997 244.199997 0 0 1 1150 833.199997 A 244.199997 244.199997 0 0 1 905.800003 589 A 244.199997 244.199997 0 0 1 1150 344.800003 A 244.199997 244.199997 0 0 1 1394.199997 589 Z" class="st1" style="fill: none; stroke: rgb(40, 40, 41); stroke-width: 2.9817; stroke-miterlimit: 10;"/>
			<path d="M 1362.100021 589 A 212.199997 212.199997 0 0 1 1149.900024 801.199997 A 212.199997 212.199997 0 0 1 937.700027 589 A 212.199997 212.199997 0 0 1 1149.900024 376.800003 A 212.199997 212.199997 0 0 1 1362.100021 589 Z" class="st1" style="fill: none; stroke: rgb(40, 40, 41); stroke-width: 2.9817; stroke-miterlimit: 10;"/>
		</g>
		<path class="st2" d="M1149.9,376.8c-117.2,0-212.2,95-212.2,212.2c0,117.2,95,212.2,212.2,212.2c117.2,0,212.2-95,212.2-212.2&#10;&#9;&#9;&#9;C1362.2,471.8,1267.1,376.8,1149.9,376.8z M1149.9,602.6c-7.5,0-13.6-6.1-13.6-13.6c0-7.5,6.1-13.6,13.6-13.6&#10;&#9;&#9;&#9;c7.5,0,13.6,6.1,13.6,13.6C1163.6,596.5,1157.5,602.6,1149.9,602.6z" style="fill: rgb(40, 40, 41);"/>
		<g>
			<path class="st3" d="M1149.9,424.7c-90.7,0-164.2,73.5-164.2,164.2c0,90.7,73.5,164.2,164.2,164.2c90.7,0,164.2-73.5,164.2-164.2&#10;&#9;&#9;&#9;&#9;C1314.2,498.3,1240.6,424.7,1149.9,424.7z M1149.9,602.6c-7.5,0-13.6-6.1-13.6-13.6c0-7.5,6.1-13.6,13.6-13.6&#10;&#9;&#9;&#9;&#9;c7.5,0,13.6,6.1,13.6,13.6C1163.6,596.5,1157.5,602.6,1149.9,602.6z" style="fill: rgb(196, 22, 28);"/>
			<path class="st4" d="M1149.9,438.5c-83.1,0-150.4,67.4-150.4,150.4c0,83.1,67.3,150.4,150.4,150.4c83.1,0,150.4-67.3,150.4-150.4&#10;&#9;&#9;&#9;&#9;C1300.4,505.9,1233,438.5,1149.9,438.5z" style="fill: none; stroke: rgb(158, 11, 15); stroke-width: 4.9696; stroke-miterlimit: 10;"/>
		</g>
		<linearGradient id="SVGID_1_" gradientUnits="userSpaceOnUse" x1="1167.2382" y1="327.4704" x2="1411.4349" y2="571.6672">
			<stop offset="0" style="stop-color:#FFFFFF;stop-opacity:0"/>
			<stop offset="0.4312" style="stop-color:#FFFFFF;stop-opacity:0.8625"/>
			<stop offset="0.5" style="stop-color:#FFFFFF"/>
			<stop offset="0.5688" style="stop-color:#FFFFFF;stop-opacity:0.8625"/>
			<stop offset="1" style="stop-color:#FFFFFF;stop-opacity:0"/>
		</linearGradient>
		<path class="st5" d="M1394.1,589c0-134.9-109.3-244.2-244.2-244.2v32c117.2,0,212.2,95,212.2,212.2H1394.1z" style="opacity: 0.12; fill: url('#SVGID_1_');"/>
		<linearGradient id="SVGID_2_" gradientUnits="userSpaceOnUse" x1="1171.2406" y1="296.1779" x2="1442.7279" y2="567.6652">
			<stop offset="0" style="stop-color:#FFFFFF;stop-opacity:0"/>
			<stop offset="0.5" style="stop-color:#FFFFFF"/>
			<stop offset="1" style="stop-color:#FFFFFF;stop-opacity:0"/>
		</linearGradient>
		<path class="st6" d="M1421.4,589c0-149.9-121.6-271.5-271.5-271.5v27.3c134.9,0,244.2,109.3,244.2,244.2H1421.4z" style="opacity: 0.12; fill: url('#SVGID_2_');"/>
		<linearGradient id="SVGID_3_" gradientUnits="userSpaceOnUse" x1="1176.1156" y1="216.9612" x2="1521.9436" y2="562.7892">
			<stop offset="5.000000e-02" style="stop-color:#FFFFFF;stop-opacity:0"/>
			<stop offset="0.5" style="stop-color:#FFFFFF"/>
			<stop offset="0.95" style="stop-color:#FFFFFF;stop-opacity:0"/>
		</linearGradient>
		<path class="st7" d="M1457.2,589c0-169.7-137.6-307.2-307.2-307.2v-38.6c191,0,345.8,154.8,345.8,345.8H1457.2z" style="opacity: 0.12; fill: url('#SVGID_3_');"/>
		<linearGradient id="SVGID_4_" gradientUnits="userSpaceOnUse" x1="1181.2137" y1="180.8097" x2="1558.0958" y2="557.6918">
			<stop offset="5.000000e-02" style="stop-color:#FFFFFF;stop-opacity:0"/>
			<stop offset="0.5" style="stop-color:#FFFFFF"/>
			<stop offset="0.95" style="stop-color:#FFFFFF;stop-opacity:0"/>
		</linearGradient>
		<path class="st8" d="M1495.8,589c0-191-154.8-345.8-345.8-345.8v-31.1c208.1,0,376.9,168.7,376.9,376.9H1495.8z" style="opacity: 0.12; fill: url('#SVGID_4_');"/>
		<linearGradient id="SVGID_5_" gradientUnits="userSpaceOnUse" x1="1182.2245" y1="133.6881" x2="1605.2177" y2="556.6813">
			<stop offset="0.1" style="stop-color:#FFFFFF;stop-opacity:0"/>
			<stop offset="0.5" style="stop-color:#FFFFFF"/>
			<stop offset="0.9" style="stop-color:#FFFFFF;stop-opacity:0"/>
		</linearGradient>
		<path class="st9" d="M1526.8,589c0-208.1-168.7-376.9-376.9-376.9V166c233.6,0,423,189.4,423,423H1526.8z" style="opacity: 0.12; fill: url('#SVGID_5_');"/>
		<linearGradient id="SVGID_6_" gradientUnits="userSpaceOnUse" x1="1186.8593" y1="81.9864" x2="1656.9192" y2="552.0463">
			<stop offset="0.1" style="stop-color:#FFFFFF;stop-opacity:0"/>
			<stop offset="0.155" style="stop-color:#FFFFFF;stop-opacity:0.1375"/>
			<stop offset="0.5" style="stop-color:#FFFFFF"/>
			<stop offset="0.845" style="stop-color:#FFFFFF;stop-opacity:0.1375"/>
			<stop offset="0.9" style="stop-color:#FFFFFF;stop-opacity:0"/>
		</linearGradient>
		<path class="st10" d="M1572.9,589c0-233.6-189.4-423-423-423v-47.1c259.6,0,470.1,210.5,470.1,470.1H1572.9z" style="opacity: 0.12; fill: url('#SVGID_6_');"/>
		<linearGradient id="SVGID_7_" gradientUnits="userSpaceOnUse" x1="1196.4235" y1="57.3817" x2="1681.524" y2="542.4823">
			<stop offset="0" style="stop-color:#FFFFFF;stop-opacity:0"/>
			<stop offset="0.5" style="stop-color:#FFFFFF"/>
			<stop offset="1" style="stop-color:#FFFFFF;stop-opacity:0"/>
		</linearGradient>
		<path class="st11" d="M1620,589c0-259.6-210.5-470.1-470.1-470.1v-15c267.9,0,485.1,217.2,485.1,485.1H1620z" style="opacity: 0.2; fill: url('#SVGID_7_');"/>
		<linearGradient id="SVGID_8_" gradientUnits="userSpaceOnUse" x1="1172.8262" y1="258.833" x2="1480.072" y2="566.0789">
			<stop offset="0" style="stop-color:#FFFFFF;stop-opacity:0"/>
			<stop offset="0.5" style="stop-color:#FFFFFF"/>
			<stop offset="1" style="stop-color:#FFFFFF;stop-opacity:0"/>
		</linearGradient>
		<path class="st12" d="M1421.4,589c0-149.9-121.6-271.5-271.5-271.5v-35.8c169.7,0,307.2,137.6,307.2,307.2H1421.4z" style="opacity: 0.12; fill: url('#SVGID_8_');"/>
		<g>
			
				<linearGradient id="SVGID_9_" gradientUnits="userSpaceOnUse" x1="2299.6531" y1="447.8097" x2="2543.8491" y2="692.0055" gradientTransform="matrix(-1 0 0 -1 3432.3145 1298.25)">
				<stop offset="0" style="stop-color:#FFFFFF;stop-opacity:0"/>
				<stop offset="0.4312" style="stop-color:#FFFFFF;stop-opacity:0.8625"/>
				<stop offset="0.5" style="stop-color:#FFFFFF"/>
				<stop offset="0.5688" style="stop-color:#FFFFFF;stop-opacity:0.8625"/>
				<stop offset="1" style="stop-color:#FFFFFF;stop-opacity:0"/>
			</linearGradient>
			<path class="st13" d="M905.8,589c0,134.9,109.3,244.2,244.2,244.2v-32c-117.2,0-212.2-95-212.2-212.2H905.8z" style="opacity: 0.12; fill: url('#SVGID_9_');"/>
			
				<linearGradient id="SVGID_10_" gradientUnits="userSpaceOnUse" x1="2303.6553" y1="416.5175" x2="2575.1421" y2="688.0043" gradientTransform="matrix(-1 0 0 -1 3432.3145 1298.25)">
				<stop offset="0" style="stop-color:#FFFFFF;stop-opacity:0"/>
				<stop offset="0.5" style="stop-color:#FFFFFF"/>
				<stop offset="1" style="stop-color:#FFFFFF;stop-opacity:0"/>
			</linearGradient>
			<path class="st14" d="M878.5,589c0,149.9,121.6,271.5,271.5,271.5v-27.3c-134.9,0-244.2-109.3-244.2-244.2H878.5z" style="opacity: 0.12; fill: url('#SVGID_10_');"/>
			
				<linearGradient id="SVGID_11_" gradientUnits="userSpaceOnUse" x1="2308.5305" y1="337.3005" x2="2654.3586" y2="683.1286" gradientTransform="matrix(-1 0 0 -1 3432.3145 1298.25)">
				<stop offset="5.000000e-02" style="stop-color:#FFFFFF;stop-opacity:0"/>
				<stop offset="0.5" style="stop-color:#FFFFFF"/>
				<stop offset="0.95" style="stop-color:#FFFFFF;stop-opacity:0"/>
			</linearGradient>
			<path class="st15" d="M842.7,589c0,169.7,137.6,307.2,307.2,307.2v38.6C959,934.8,804.1,780,804.1,589H842.7z" style="opacity: 0.12; fill: url('#SVGID_11_');"/>
			
				<linearGradient id="SVGID_12_" gradientUnits="userSpaceOnUse" x1="2313.6289" y1="301.1494" x2="2690.5103" y2="678.0308" gradientTransform="matrix(-1 0 0 -1 3432.3145 1298.25)">
				<stop offset="5.000000e-02" style="stop-color:#FFFFFF;stop-opacity:0"/>
				<stop offset="0.5" style="stop-color:#FFFFFF"/>
				<stop offset="0.95" style="stop-color:#FFFFFF;stop-opacity:0"/>
			</linearGradient>
			<path class="st16" d="M804.1,589c0,191,154.8,345.8,345.8,345.8v31.1c-208.1,0-376.9-168.7-376.9-376.9H804.1z" style="opacity: 0.12; fill: url('#SVGID_12_');"/>
			
				<linearGradient id="SVGID_13_" gradientUnits="userSpaceOnUse" x1="2314.6392" y1="254.028" x2="2737.6309" y2="677.0197" gradientTransform="matrix(-1 0 0 -1 3432.3145 1298.25)">
				<stop offset="0.1" style="stop-color:#FFFFFF;stop-opacity:0"/>
				<stop offset="0.5" style="stop-color:#FFFFFF"/>
				<stop offset="0.9" style="stop-color:#FFFFFF;stop-opacity:0"/>
			</linearGradient>
			<path class="st17" d="M773.1,589c0,208.1,168.7,376.9,376.9,376.9v46.1c-233.6,0-423-189.4-423-423H773.1z" style="opacity: 0.12; fill: url('#SVGID_13_');"/>
			
				<linearGradient id="SVGID_14_" gradientUnits="userSpaceOnUse" x1="2319.2742" y1="202.3256" x2="2789.3337" y2="672.3851" gradientTransform="matrix(-1 0 0 -1 3432.3145 1298.25)">
				<stop offset="0.1" style="stop-color:#FFFFFF;stop-opacity:0"/>
				<stop offset="0.155" style="stop-color:#FFFFFF;stop-opacity:0.1375"/>
				<stop offset="0.5" style="stop-color:#FFFFFF"/>
				<stop offset="0.845" style="stop-color:#FFFFFF;stop-opacity:0.1375"/>
				<stop offset="0.9" style="stop-color:#FFFFFF;stop-opacity:0"/>
			</linearGradient>
			<path class="st18" d="M727,589c0,233.6,189.4,423,423,423v47.1c-259.6,0-470.1-210.5-470.1-470.1H727z" style="opacity: 0.12; fill: url('#SVGID_14_');"/>
			
				<linearGradient id="SVGID_15_" gradientUnits="userSpaceOnUse" x1="2328.8384" y1="177.7211" x2="2813.938" y2="662.8207" gradientTransform="matrix(-1 0 0 -1 3432.3145 1298.25)">
				<stop offset="0" style="stop-color:#FFFFFF;stop-opacity:0"/>
				<stop offset="0.5" style="stop-color:#FFFFFF"/>
				<stop offset="1" style="stop-color:#FFFFFF;stop-opacity:0"/>
			</linearGradient>
			<path class="st19" d="M679.9,589c0,259.6,210.5,470.1,470.1,470.1v15c-267.9,0-485.1-217.2-485.1-485.1H679.9z" style="opacity: 0.2; fill: url('#SVGID_15_');"/>
			
				<linearGradient id="SVGID_16_" gradientUnits="userSpaceOnUse" x1="2305.2412" y1="379.1728" x2="2612.4863" y2="686.4179" gradientTransform="matrix(-1 0 0 -1 3432.3145 1298.25)">
				<stop offset="0" style="stop-color:#FFFFFF;stop-opacity:0"/>
				<stop offset="0.5" style="stop-color:#FFFFFF"/>
				<stop offset="1" style="stop-color:#FFFFFF;stop-opacity:0"/>
			</linearGradient>
			<path class="st20" d="M878.5,589c0,149.9,121.6,271.5,271.5,271.5v35.8c-169.7,0-307.2-137.6-307.2-307.2H878.5z" style="opacity: 0.12; fill: url('#SVGID_16_');"/>
		</g>
	</g><path d="M 1077.9000244140625 1080.5999755859375 L 100 1080.5999755859375 L 100 102.69999694824219 L 102.80000305175781 100 L 1080.5999755859375 1077.9000244140625 Z" class="st21" style="fill: rgb(179, 179, 179);" transform="matrix(1, 0, 0, 1, 1.1368683772161603e-13, 5.684341886080802e-14)"/><path d="M 102.699997 100 H 1080.600021 V 1077.900024 H 102.699997 V 100 Z" class="st22" style="fill: url('#SVGID_17_');" transform="matrix(1, 0, 0, 1, 1.1368683772161603e-13, 5.684341886080802e-14)"/></g></svg>