<svg width="409" height="409" viewBox="0 0 409 409" fill="none" xmlns="http://www.w3.org/2000/svg">
<circle cx="204.5" cy="204.5" r="204.5" fill="#282829"/>
<g clip-path="url(#clip0_1_292)">
<path d="M204.5 2.03683C92.6695 2.03683 2.00002 92.6981 2.00002 204.519C2.00002 316.339 92.6695 407 204.5 407C316.331 407 407 316.339 407 204.519C406.964 92.6618 316.331 2.03683 204.5 2.03683ZM204.5 210.18C201.342 210.18 198.801 207.64 198.801 204.482C198.801 201.325 201.342 198.784 204.5 198.784C207.658 198.784 210.199 201.325 210.199 204.482C210.199 207.64 207.622 210.18 204.5 210.18Z" fill="black"/>
<path d="M400.285 204.482C400.285 230.19 395.221 255.647 385.382 279.399C375.543 303.15 361.121 324.732 342.941 342.91C324.761 361.089 303.177 375.509 279.424 385.347C255.67 395.186 230.211 400.249 204.5 400.249C178.789 400.249 153.33 395.186 129.576 385.347C105.823 375.509 84.2394 361.089 66.059 342.91C47.8787 324.732 33.4573 303.15 23.6182 279.399C13.779 255.647 8.71491 230.19 8.71491 204.482C8.71491 178.773 13.779 153.316 23.6182 129.565C33.4573 105.813 47.8787 84.232 66.059 66.0533C84.2394 47.8746 105.823 33.4544 129.576 23.6162C153.33 13.778 178.789 8.71431 204.5 8.71431C230.211 8.71431 255.67 13.778 279.424 23.6162C303.177 33.4544 324.761 47.8746 342.941 66.0533C361.121 84.232 375.543 105.813 385.382 129.565C395.221 153.316 400.285 178.773 400.285 204.482Z" stroke="#414042" stroke-width="1.143" stroke-miterlimit="10"/>
<path d="M398.361 204.482C398.361 255.892 377.937 305.197 341.581 341.55C305.225 377.903 255.915 398.326 204.5 398.326C153.085 398.326 103.775 377.903 67.4193 341.55C31.0633 305.197 10.6387 255.892 10.6387 204.482C10.6387 153.071 31.0633 103.766 67.4193 67.4134C103.775 31.0607 153.085 10.6379 204.5 10.6379C255.915 10.6379 305.225 31.0607 341.581 67.4134C377.937 103.766 398.361 153.071 398.361 204.482Z" stroke="#414042" stroke-width="1.143" stroke-miterlimit="10"/>
<path d="M396.401 204.482C396.401 229.68 391.438 254.632 381.794 277.913C372.15 301.193 358.014 322.346 340.195 340.164C322.375 357.982 301.22 372.117 277.937 381.76C254.655 391.403 229.701 396.366 204.5 396.366C179.299 396.366 154.345 391.403 131.063 381.76C107.78 372.117 86.625 357.982 68.8053 340.164C50.9856 322.346 36.8502 301.193 27.2063 277.913C17.5624 254.632 12.5987 229.68 12.5987 204.482C12.5987 179.283 17.5624 154.331 27.2063 131.051C36.8502 107.771 50.9856 86.6174 68.8053 68.7993C86.625 50.9812 107.78 36.8471 131.063 27.2041C154.345 17.561 179.299 12.5977 204.5 12.5977C229.701 12.5977 254.655 17.561 277.937 27.2041C301.22 36.8471 322.375 50.9812 340.195 68.7993C358.014 86.6174 372.15 107.771 381.794 131.051C391.438 154.331 396.401 179.283 396.401 204.482Z" stroke="#414042" stroke-width="1.143" stroke-miterlimit="10"/>
<path d="M394.478 204.482C394.478 254.863 374.462 303.18 338.834 338.804C303.207 374.429 254.885 394.442 204.5 394.442C179.552 394.442 154.848 389.529 131.799 379.982C108.75 370.436 87.8066 356.444 70.1656 338.804C52.5245 321.165 38.5309 300.224 28.9836 277.177C19.4363 254.13 14.5224 229.428 14.5224 204.482C14.5224 179.536 19.4363 154.834 28.9836 131.787C38.5309 108.74 52.5245 87.7989 70.1656 70.1594C87.8066 52.52 108.75 38.5276 131.799 28.9812C154.848 19.4347 179.552 14.5213 204.5 14.5213C229.448 14.5213 254.152 19.4347 277.201 28.9812C300.25 38.5276 321.193 52.52 338.834 70.1594C356.476 87.7989 370.469 108.74 380.016 131.787C389.564 154.834 394.478 179.536 394.478 204.482Z" stroke="#414042" stroke-width="1.143" stroke-miterlimit="10"/>
<path d="M392.554 204.482C392.554 254.352 372.741 302.18 337.474 337.444C302.207 372.708 254.375 392.519 204.5 392.519C154.625 392.519 106.793 372.708 71.5259 337.444C36.2589 302.18 16.4462 254.352 16.4462 204.482C16.4462 154.611 36.2589 106.783 71.5259 71.5196C106.793 36.2558 154.625 16.4449 204.5 16.4449C254.375 16.4449 302.207 36.2558 337.474 71.5196C372.741 106.783 392.554 154.611 392.554 204.482Z" stroke="#414042" stroke-width="1.143" stroke-miterlimit="10"/>
<path d="M390.63 204.482C390.63 253.842 371.02 301.181 336.114 336.084C301.208 370.987 253.865 390.595 204.5 390.595C155.135 390.595 107.792 370.987 72.8861 336.084C37.98 301.181 18.3699 253.842 18.3699 204.482C18.3699 155.121 37.98 107.783 72.8861 72.8798C107.792 37.9767 155.135 18.3684 204.5 18.3684C253.865 18.3684 301.208 37.9767 336.114 72.8798C371.02 107.783 390.63 155.121 390.63 204.482Z" stroke="#414042" stroke-width="1.143" stroke-miterlimit="10"/>
<path d="M388.706 204.482C388.706 253.332 369.299 300.182 334.754 334.724C300.208 369.266 253.355 388.672 204.5 388.672C155.645 388.672 108.792 369.266 74.2464 334.724C39.701 300.182 20.2936 253.332 20.2936 204.482C20.2936 155.632 39.701 108.782 74.2464 74.2399C108.792 39.6976 155.645 20.292 204.5 20.292C253.355 20.292 300.208 39.6976 334.754 74.2399C369.299 108.782 388.706 155.632 388.706 204.482Z" stroke="#414042" stroke-width="1.143" stroke-miterlimit="10"/>
<path d="M386.783 204.482C386.783 228.417 382.068 252.119 372.907 274.232C363.747 296.346 350.32 316.439 333.393 333.364C316.467 350.289 296.372 363.714 274.257 372.874C252.141 382.034 228.438 386.748 204.5 386.748C180.562 386.748 156.859 382.034 134.743 372.874C112.628 363.714 92.5332 350.289 75.6067 333.364C58.6802 316.439 45.2533 296.346 36.0928 274.232C26.9322 252.119 22.2173 228.417 22.2173 204.482C22.2173 180.546 26.9322 156.845 36.0928 134.732C45.2533 112.618 58.6802 92.5251 75.6067 75.6001C92.5332 58.6751 112.628 45.2495 134.743 36.0897C156.859 26.93 180.562 22.2155 204.5 22.2155C228.438 22.2155 252.141 26.93 274.257 36.0897C296.372 45.2495 316.467 58.6751 333.393 75.6001C350.32 92.5251 363.747 112.618 372.907 134.732C382.068 156.845 386.783 180.546 386.783 204.482Z" stroke="#414042" stroke-width="1.143" stroke-miterlimit="10"/>
<path d="M384.859 204.482C384.859 252.312 365.857 298.183 332.033 332.003C298.209 365.824 252.334 384.825 204.5 384.825C156.666 384.825 110.791 365.824 76.967 332.003C43.1431 298.183 24.1411 252.312 24.1411 204.482C24.1411 156.652 43.1431 110.781 76.967 76.9603C110.791 43.1394 156.666 24.1391 204.5 24.1391C252.334 24.1391 298.209 43.1394 332.033 76.9603C365.857 110.781 384.859 156.652 384.859 204.482Z" stroke="#414042" stroke-width="1.143" stroke-miterlimit="10"/>
<path d="M382.935 204.482C382.935 227.912 378.32 251.113 369.353 272.76C360.385 294.407 347.242 314.075 330.673 330.643C314.103 347.211 294.433 360.353 272.784 369.32C251.135 378.286 227.932 382.901 204.5 382.901C181.068 382.901 157.865 378.286 136.216 369.32C114.567 360.353 94.8965 347.211 78.3273 330.643C61.758 314.075 48.6146 294.407 39.6474 272.76C30.6802 251.113 26.0648 227.912 26.0648 204.482C26.0648 181.051 30.6802 157.851 39.6474 136.204C48.6146 114.557 61.758 94.8882 78.3273 78.3204C94.8965 61.7527 114.567 48.6104 136.216 39.644C157.865 30.6776 181.068 26.0627 204.5 26.0627C227.932 26.0627 251.135 30.6776 272.784 39.644C294.433 48.6104 314.103 61.7527 330.673 78.3204C347.242 94.8882 360.385 114.557 369.353 136.204C378.32 157.851 382.935 181.051 382.935 204.482Z" stroke="#414042" stroke-width="1.143" stroke-miterlimit="10"/>
<path d="M381.011 204.482C381.011 251.291 362.415 296.184 329.312 329.283C296.21 362.382 251.314 380.977 204.5 380.977C157.686 380.977 112.79 362.382 79.6875 329.283C46.5852 296.184 27.9885 251.291 27.9885 204.482C27.9885 157.672 46.5852 112.78 79.6875 79.6806C112.79 46.5812 157.686 27.9862 204.5 27.9862C251.314 27.9862 296.21 46.5812 329.312 79.6806C362.415 112.78 381.011 157.672 381.011 204.482Z" stroke="#414042" stroke-width="1.143" stroke-miterlimit="10"/>
<path d="M379.124 204.482C379.124 227.412 374.607 250.117 365.832 271.302C357.056 292.486 344.193 311.735 327.978 327.949C311.763 344.162 292.512 357.024 271.326 365.799C250.139 374.574 227.432 379.09 204.5 379.09C181.568 379.09 158.861 374.574 137.674 365.799C116.488 357.024 97.2375 344.162 81.0222 327.949C64.8068 311.735 51.9441 292.486 43.1684 271.302C34.3928 250.117 29.876 227.412 29.876 204.482C29.876 181.552 34.3928 158.847 43.1684 137.662C51.9441 116.478 64.8068 97.229 81.0222 81.0151C97.2375 64.8012 116.488 51.9396 137.674 43.1648C158.861 34.3899 181.568 29.8735 204.5 29.8735C227.432 29.8735 250.139 34.3899 271.326 43.1648C292.512 51.9396 311.763 64.8012 327.978 81.0151C344.193 97.229 357.056 116.478 365.832 137.662C374.607 158.847 379.124 181.552 379.124 204.482Z" stroke="#414042" stroke-width="1.143" stroke-miterlimit="10"/>
<path d="M377.2 204.482C377.2 250.281 359.005 294.204 326.618 326.588C294.23 358.973 250.303 377.167 204.5 377.167C158.697 377.167 114.77 358.973 82.3825 326.588C49.9949 294.204 31.7997 250.281 31.7997 204.482C31.7997 158.683 49.9949 114.76 82.3825 82.3752C114.77 49.9906 158.697 31.7971 204.5 31.7971C250.303 31.7971 294.23 49.9906 326.618 82.3752C359.005 114.76 377.2 158.683 377.2 204.482Z" stroke="#414042" stroke-width="1.143" stroke-miterlimit="10"/>
<path d="M375.313 204.482C375.313 226.911 370.895 249.121 362.311 269.843C353.726 290.565 341.144 309.394 325.283 325.254C309.422 341.114 290.591 353.695 269.867 362.278C249.143 370.862 226.932 375.279 204.5 375.279C182.069 375.279 159.857 370.862 139.133 362.278C118.409 353.695 99.5785 341.114 83.7171 325.254C67.8556 309.394 55.2737 290.565 46.6895 269.843C38.1053 249.121 33.6871 226.911 33.6871 204.482C33.6871 182.052 38.1053 159.843 46.6895 139.12C55.2737 118.398 67.8556 99.5698 83.7171 83.7098C99.5785 67.8497 118.409 55.2689 139.133 46.6855C159.857 38.1021 182.069 33.6843 204.5 33.6843C226.932 33.6843 249.143 38.1021 269.867 46.6855C290.591 55.2689 309.422 67.8497 325.283 83.7098C341.144 99.5698 353.726 118.398 362.311 139.12C370.895 159.843 375.313 182.052 375.313 204.482Z" stroke="#414042" stroke-width="1.143" stroke-miterlimit="10"/>
<path d="M373.389 204.482C373.389 249.27 355.595 292.224 323.923 323.894C292.25 355.564 249.292 373.356 204.5 373.356C159.708 373.356 116.75 355.564 85.0774 323.894C53.4045 292.224 35.6109 249.27 35.6109 204.482C35.6109 159.694 53.4045 116.74 85.0774 85.0699C116.75 53.3999 159.708 35.6079 204.5 35.6079C249.292 35.6079 292.25 53.3999 323.923 85.0699C355.595 116.74 373.389 159.694 373.389 204.482Z" stroke="#414042" stroke-width="1.143" stroke-miterlimit="10"/>
<path d="M371.502 204.482C371.502 248.769 353.907 291.243 322.588 322.559C291.269 353.875 248.792 371.469 204.5 371.469C182.569 371.469 160.853 367.149 140.591 358.757C120.33 350.366 101.92 338.065 86.412 322.559C70.9044 307.053 58.6032 288.645 50.2106 268.385C41.8179 248.125 37.4983 226.411 37.4983 204.482C37.4983 182.553 41.8179 160.839 50.2106 140.579C58.6032 120.319 70.9044 101.911 86.412 86.4044C101.92 70.8982 120.33 58.5981 140.591 50.2062C160.853 41.8143 182.569 37.4951 204.5 37.4951C226.431 37.4951 248.147 41.8143 268.409 50.2062C288.67 58.5981 307.08 70.8982 322.588 86.4044C338.096 101.911 350.397 120.319 358.789 140.579C367.182 160.839 371.502 182.553 371.502 204.482Z" stroke="#414042" stroke-width="1.143" stroke-miterlimit="10"/>
<path d="M369.614 204.482C369.614 248.269 352.218 290.263 321.253 321.225C290.289 352.187 248.291 369.581 204.5 369.581C160.709 369.581 118.712 352.187 87.7466 321.225C56.7817 290.263 39.3857 248.269 39.3857 204.482C39.3857 160.695 56.7817 118.701 87.7466 87.7389C118.712 56.7768 160.709 39.3824 204.5 39.3824C248.291 39.3824 290.289 56.7768 321.253 87.7389C352.218 118.701 369.614 160.695 369.614 204.482Z" stroke="#414042" stroke-width="1.143" stroke-miterlimit="10"/>
<path d="M367.727 204.482C367.727 225.915 363.505 247.139 355.302 266.94C347.099 286.742 335.076 304.735 319.919 319.89C304.762 335.046 286.768 347.068 266.964 355.27C247.161 363.472 225.935 367.694 204.5 367.694C183.065 367.694 161.839 363.472 142.036 355.27C122.232 347.068 104.238 335.046 89.0812 319.89C73.9242 304.735 61.901 286.742 53.6981 266.94C45.4952 247.139 41.2732 225.915 41.2732 204.482C41.2732 183.049 45.4952 161.825 53.6981 142.023C61.901 122.221 73.9242 104.229 89.0812 89.0734C104.238 73.9177 122.232 61.8956 142.036 53.6934C161.839 45.4913 183.065 41.2696 204.5 41.2696C225.935 41.2696 247.161 45.4913 266.964 53.6934C286.768 61.8956 304.762 73.9177 319.919 89.0734C335.076 104.229 347.099 122.221 355.302 142.023C363.505 161.825 367.727 183.049 367.727 204.482Z" stroke="#414042" stroke-width="1.143" stroke-miterlimit="10"/>
<path d="M365.839 204.482C365.839 225.667 361.666 246.645 353.558 266.218C345.45 285.791 333.566 303.575 318.584 318.556C303.602 333.536 285.817 345.419 266.242 353.527C246.667 361.634 225.687 365.807 204.5 365.807C161.71 365.807 120.673 348.81 90.4158 318.556C60.1588 288.301 43.1606 247.268 43.1606 204.482C43.1606 161.696 60.1588 120.662 90.4158 90.4079C120.673 60.1536 161.71 43.1569 204.5 43.1569C225.687 43.1569 246.667 47.3297 266.242 55.4371C285.817 63.5444 303.602 75.4275 318.584 90.4079C333.566 105.388 345.45 123.173 353.558 142.745C361.666 162.318 365.839 183.296 365.839 204.482Z" stroke="#414042" stroke-width="1.143" stroke-miterlimit="10"/>
<path d="M363.952 204.482C363.952 246.767 347.153 287.321 317.25 317.221C287.346 347.122 246.789 363.919 204.5 363.919C162.211 363.919 121.653 347.122 91.7504 317.221C61.8474 287.321 45.0481 246.767 45.048 204.482C45.048 162.196 61.8474 121.643 91.7504 91.7424C121.653 61.842 162.211 45.0442 204.5 45.0442C246.789 45.0442 287.346 61.842 317.25 91.7424C347.153 121.643 363.952 162.196 363.952 204.482Z" stroke="#414042" stroke-width="1.143" stroke-miterlimit="10"/>
<path d="M362.065 204.482C362.065 225.172 357.989 245.659 350.071 264.774C342.152 283.889 330.546 301.257 315.915 315.887C301.284 330.517 283.914 342.122 264.797 350.039C245.681 357.957 225.192 362.032 204.5 362.032C183.808 362.032 163.319 357.957 144.203 350.039C125.086 342.122 107.716 330.517 93.0851 315.887C78.4539 301.257 66.8477 283.889 58.9294 264.774C51.011 245.659 46.9355 225.172 46.9355 204.482C46.9355 183.792 51.011 163.305 58.9294 144.19C66.8477 125.075 78.4539 107.707 93.0851 93.0769C107.716 78.447 125.086 66.8419 144.203 58.9242C163.319 51.0066 183.808 46.9315 204.5 46.9315C225.192 46.9315 245.681 51.0066 264.797 58.9242C283.914 66.8419 301.284 78.447 315.915 93.0769C330.546 107.707 342.152 125.075 350.071 144.19C357.989 163.305 362.065 183.792 362.065 204.482Z" stroke="#414042" stroke-width="1.143" stroke-miterlimit="10"/>
<path d="M360.177 204.482C360.177 245.766 343.775 285.36 314.58 314.552C285.385 343.745 245.788 360.145 204.5 360.145C163.212 360.145 123.615 343.745 94.4197 314.552C65.2246 285.36 48.8229 245.766 48.8229 204.482C48.8229 163.197 65.2246 123.604 94.4197 94.4114C123.615 65.2189 163.212 48.8187 204.5 48.8187C245.788 48.8187 285.385 65.2189 314.58 94.4114C343.775 123.604 360.177 163.197 360.177 204.482Z" stroke="#414042" stroke-width="1.143" stroke-miterlimit="10"/>
<path d="M358.326 204.482C358.326 245.275 342.119 284.398 313.271 313.243C284.423 342.089 245.297 358.294 204.5 358.294C163.703 358.294 124.577 342.089 95.7286 313.243C66.8807 284.398 50.6741 245.275 50.6741 204.482C50.6741 163.688 66.8807 124.566 95.7286 95.7202C124.577 66.8748 163.703 50.6697 204.5 50.6697C245.297 50.6697 284.423 66.8748 313.271 95.7202C342.119 124.566 358.326 163.688 358.326 204.482Z" stroke="#414042" stroke-width="1.143" stroke-miterlimit="10"/>
<path d="M356.439 204.482C356.439 224.433 352.509 244.189 344.873 262.621C337.237 281.053 326.046 297.801 311.937 311.909C297.828 326.016 281.078 337.207 262.644 344.842C244.21 352.477 224.453 356.407 204.5 356.407C184.547 356.407 164.79 352.477 146.356 344.842C127.922 337.207 111.172 326.016 97.0633 311.909C82.9545 297.801 71.7627 281.053 64.1271 262.621C56.4915 244.189 52.5615 224.433 52.5615 204.482C52.5615 184.531 56.4915 164.775 64.1271 146.343C71.7627 127.91 82.9545 111.162 97.0633 97.0547C111.172 82.9472 127.922 71.7565 146.356 64.1215C164.79 56.4866 184.547 52.557 204.5 52.557C224.453 52.557 244.21 56.4866 262.644 64.1215C281.078 71.7565 297.828 82.9472 311.937 97.0547C326.046 111.162 337.237 127.91 344.873 146.343C352.509 164.775 356.439 184.531 356.439 204.482Z" stroke="#414042" stroke-width="1.143" stroke-miterlimit="10"/>
<path d="M354.587 204.482C354.587 244.284 338.775 282.456 310.628 310.6C282.481 338.744 244.306 354.556 204.5 354.556C164.694 354.556 126.519 338.744 98.3722 310.6C70.2254 282.456 54.4126 244.284 54.4126 204.482C54.4126 164.68 70.2254 126.508 98.3722 98.3635C126.519 70.2192 164.694 54.4079 204.5 54.4079C244.306 54.4079 282.481 70.2192 310.628 98.3635C338.775 126.508 354.587 164.68 354.587 204.482Z" stroke="#414042" stroke-width="1.143" stroke-miterlimit="10"/>
<path d="M352.736 204.482C352.736 243.793 337.119 281.494 309.319 309.291C281.519 337.088 243.815 352.705 204.5 352.705C165.185 352.705 127.481 337.088 99.6812 309.291C71.8815 281.494 56.2638 243.793 56.2638 204.482C56.2638 165.171 71.8815 127.47 99.6812 99.6724C127.481 71.8752 165.185 56.2589 204.5 56.2589C243.815 56.2589 281.519 71.8752 309.319 99.6724C337.119 127.47 352.736 165.171 352.736 204.482Z" stroke="#414042" stroke-width="1.143" stroke-miterlimit="10"/>
<path d="M350.885 204.482C350.885 243.302 335.462 280.532 308.01 307.982C280.557 335.433 243.324 350.854 204.5 350.854C165.676 350.854 128.443 335.433 100.99 307.982C73.5376 280.532 58.1149 243.302 58.1149 204.482C58.1149 165.662 73.5376 128.431 100.99 100.981C128.443 73.5312 165.676 58.1099 204.5 58.1099C243.324 58.1099 280.557 73.5312 308.01 100.981C335.462 128.431 350.885 165.662 350.885 204.482Z" stroke="#414042" stroke-width="1.143" stroke-miterlimit="10"/>
<path d="M349.034 204.482C349.034 223.461 345.296 242.254 338.032 259.788C330.769 277.322 320.122 293.254 306.701 306.674C293.28 320.094 277.346 330.739 259.811 338.002C242.275 345.265 223.481 349.003 204.5 349.003C185.52 349.003 166.725 345.265 149.189 338.002C131.654 330.739 115.72 320.094 102.299 306.674C88.8779 293.254 78.2315 277.322 70.968 259.788C63.7045 242.254 59.966 223.461 59.966 204.482C59.966 185.503 63.7045 166.71 70.968 149.176C78.2315 131.642 88.8779 115.71 102.299 102.29C115.72 88.87 131.654 78.2247 149.189 70.9619C166.725 63.699 185.52 59.9608 204.5 59.9608C223.481 59.9608 242.275 63.699 259.811 70.9619C277.346 78.2247 293.28 88.87 306.701 102.29C320.122 115.71 330.769 131.642 338.032 149.176C345.296 166.71 349.034 185.503 349.034 204.482Z" stroke="#414042" stroke-width="1.143" stroke-miterlimit="10"/>
<path d="M347.183 204.482C347.183 223.218 343.492 241.77 336.322 259.079C329.151 276.389 318.641 292.117 305.392 305.365C292.143 318.613 276.413 329.122 259.102 336.292C241.791 343.462 223.237 347.152 204.5 347.152C185.763 347.152 167.209 343.462 149.898 336.292C132.587 329.122 116.857 318.613 103.608 305.365C90.3587 292.117 79.8487 276.389 72.6783 259.079C65.5078 241.77 61.8172 223.218 61.8172 204.482C61.8172 185.746 65.5078 167.194 72.6783 149.884C79.8487 132.575 90.3587 116.847 103.608 103.599C116.857 90.3508 132.587 79.8418 149.898 72.6719C167.209 65.5021 185.763 61.8118 204.5 61.8118C223.237 61.8118 241.791 65.5021 259.102 72.6719C276.413 79.8418 292.143 90.3508 305.392 103.599C318.641 116.847 329.151 132.575 336.322 149.884C343.492 167.194 347.183 185.746 347.183 204.482Z" stroke="#414042" stroke-width="1.143" stroke-miterlimit="10"/>
<path d="M345.368 204.482C345.368 222.979 341.724 241.295 334.645 258.385C327.566 275.474 317.19 291.002 304.109 304.082C291.028 317.161 275.499 327.537 258.408 334.615C241.317 341.694 222.999 345.337 204.5 345.337C186.001 345.337 167.683 341.694 150.592 334.615C133.501 327.537 117.972 317.161 104.891 304.082C91.8105 291.002 81.4342 275.474 74.355 258.385C67.2757 241.295 63.632 222.979 63.632 204.482C63.632 185.984 67.2757 167.668 74.355 150.579C81.4342 133.489 91.8105 117.962 104.891 104.882C117.972 91.8025 133.501 81.4271 150.592 74.3485C167.683 67.2698 186.001 63.6265 204.5 63.6265C222.999 63.6265 241.317 67.2698 258.408 74.3485C275.499 81.4271 291.028 91.8025 304.109 104.882C317.19 117.962 327.566 133.489 334.645 150.579C341.724 167.668 345.368 185.984 345.368 204.482Z" stroke="#414042" stroke-width="1.143" stroke-miterlimit="10"/>
<path d="M343.517 204.482C343.517 241.348 328.87 276.704 302.8 302.773C276.729 328.841 241.37 343.486 204.5 343.486C167.63 343.486 132.271 328.841 106.2 302.773C80.1295 276.704 65.4832 241.348 65.4832 204.482C65.4832 167.616 80.1295 132.259 106.2 106.191C132.271 80.1225 167.63 65.4775 204.5 65.4775C241.37 65.4775 276.729 80.1225 302.8 106.191C328.87 132.259 343.517 167.616 343.517 204.482Z" stroke="#414042" stroke-width="1.143" stroke-miterlimit="10"/>
<path d="M341.702 204.482C341.702 240.867 327.247 275.762 301.517 301.49C275.786 327.218 240.888 341.672 204.5 341.672C168.112 341.672 133.214 327.218 107.484 301.49C81.7532 275.762 67.298 240.867 67.298 204.482C67.298 168.097 81.7532 133.202 107.484 107.474C133.214 81.746 168.112 67.2921 204.5 67.2921C240.888 67.2921 275.786 81.746 301.517 107.474C327.247 133.202 341.702 168.097 341.702 204.482Z" stroke="#414042" stroke-width="1.143" stroke-miterlimit="10"/>
<path d="M339.887 204.482C339.887 240.386 325.623 274.819 300.233 300.206C274.843 325.594 240.407 339.857 204.5 339.857C168.593 339.857 134.157 325.594 108.767 300.206C83.3768 274.819 69.1129 240.386 69.1129 204.482C69.1129 168.578 83.3768 134.145 108.767 108.757C134.157 83.3695 168.593 69.1068 204.5 69.1068C240.407 69.1068 274.843 83.3695 300.233 108.757C325.623 134.145 339.887 168.578 339.887 204.482Z" stroke="#414042" stroke-width="1.143" stroke-miterlimit="10"/>
<path d="M338.072 204.482C338.072 239.904 324 273.876 298.95 298.923C273.9 323.971 239.926 338.042 204.5 338.042C169.074 338.042 135.1 323.971 110.05 298.923C85.0005 273.876 70.9277 239.904 70.9277 204.482C70.9277 169.059 85.0005 135.088 110.05 110.04C135.1 84.993 169.074 70.9215 204.5 70.9215C239.926 70.9215 273.9 84.993 298.95 110.04C324 135.088 338.072 169.059 338.072 204.482Z" stroke="#414042" stroke-width="1.143" stroke-miterlimit="10"/>
<path d="M336.294 204.482C336.294 239.433 322.408 272.952 297.692 297.666C272.976 322.38 239.454 336.264 204.5 336.264C187.193 336.264 170.055 332.855 154.065 326.232C138.075 319.61 123.546 309.903 111.308 297.666C99.0695 285.429 89.3617 270.901 82.7384 254.913C76.1152 238.924 72.7062 221.788 72.7062 204.482C72.7062 187.176 76.1152 170.04 82.7384 154.051C89.3617 138.063 99.0695 123.535 111.308 111.298C123.546 99.0608 138.075 89.3538 154.065 82.7312C170.055 76.1085 187.193 72.6999 204.5 72.6999C221.807 72.6999 238.945 76.1085 254.935 82.7312C270.925 89.3538 285.454 99.0608 297.692 111.298C309.93 123.535 319.638 138.063 326.262 154.051C332.885 170.04 336.294 187.176 336.294 204.482Z" stroke="#414042" stroke-width="1.143" stroke-miterlimit="10"/>
<path d="M334.479 204.482C334.479 221.549 331.117 238.45 324.585 254.218C318.053 269.987 308.479 284.314 296.409 296.383C284.339 308.451 270.011 318.024 254.241 324.556C238.471 331.087 221.569 334.449 204.5 334.449C187.431 334.449 170.529 331.087 154.759 324.556C138.989 318.024 124.661 308.451 112.591 296.383C100.521 284.314 90.9472 269.987 84.4151 254.218C77.8831 238.45 74.5211 221.549 74.5211 204.482C74.5211 187.414 77.8831 170.514 84.4151 154.746C90.9472 138.977 100.521 124.65 112.591 112.581C124.661 100.513 138.989 90.9392 154.759 84.4077C170.529 77.8762 187.431 74.5146 204.5 74.5146C221.569 74.5146 238.471 77.8762 254.241 84.4077C270.011 90.9392 284.339 100.513 296.409 112.581C308.479 124.65 318.053 138.977 324.585 154.746C331.117 170.514 334.479 187.414 334.479 204.482Z" stroke="#414042" stroke-width="1.143" stroke-miterlimit="10"/>
<path d="M332.7 204.482C332.7 238.48 319.194 271.085 295.151 295.125C271.109 319.165 238.501 332.671 204.5 332.671C187.665 332.671 170.994 329.355 155.44 322.913C139.886 316.471 125.753 307.029 113.849 295.125C101.944 283.222 92.501 269.09 86.0583 253.538C79.6156 237.985 76.2996 221.316 76.2996 204.482C76.2996 187.648 79.6156 170.979 86.0583 155.426C92.501 139.873 101.944 125.742 113.849 113.839C125.753 101.935 139.886 92.4929 155.44 86.0508C170.994 79.6087 187.665 76.2929 204.5 76.2929C221.336 76.2929 238.006 79.6087 253.56 86.0508C269.114 92.4929 283.247 101.935 295.151 113.839C307.056 125.742 316.499 139.873 322.942 155.426C329.384 170.979 332.7 187.648 332.7 204.482Z" stroke="#414042" stroke-width="1.143" stroke-miterlimit="10"/>
<path d="M330.922 204.482C330.922 238.008 317.602 270.161 293.894 293.868C270.185 317.574 238.029 330.892 204.5 330.892C170.971 330.892 138.815 317.574 115.106 293.868C91.3976 270.161 78.0782 238.008 78.0782 204.482C78.0782 170.956 91.3976 138.803 115.106 115.096C138.815 91.3895 170.971 78.0714 204.5 78.0714C238.029 78.0714 270.185 91.3895 293.894 115.096C317.602 138.803 330.922 170.956 330.922 204.482Z" stroke="#414042" stroke-width="1.143" stroke-miterlimit="10"/>
<path d="M329.143 204.482C329.143 237.536 316.011 269.237 292.636 292.61C269.261 315.983 237.557 329.114 204.5 329.114C171.443 329.114 139.739 315.983 116.364 292.61C92.9887 269.237 79.8567 237.536 79.8567 204.482C79.8567 171.427 92.9887 139.727 116.364 116.354C139.739 92.9806 171.443 79.8497 204.5 79.8497C237.557 79.8497 269.261 92.9806 292.636 116.354C316.011 139.727 329.143 171.427 329.143 204.482Z" stroke="#414042" stroke-width="1.143" stroke-miterlimit="10"/>
<path d="M327.365 204.482C327.365 237.065 314.42 268.313 291.379 291.353C268.337 314.392 237.086 327.336 204.5 327.336C171.914 327.336 140.663 314.392 117.622 291.353C94.5799 268.313 81.6353 237.065 81.6353 204.482C81.6353 171.899 94.5799 140.651 117.622 117.611C140.663 94.5716 171.914 81.6281 204.5 81.6281C237.086 81.6281 268.337 94.5716 291.379 117.611C314.42 140.651 327.365 171.899 327.365 204.482Z" stroke="#414042" stroke-width="1.143" stroke-miterlimit="10"/>
<path d="M325.623 204.482C325.623 236.603 312.861 267.408 290.147 290.121C267.432 312.834 236.624 325.594 204.5 325.594C188.594 325.594 172.844 322.461 158.148 316.374C143.453 310.288 130.101 301.367 118.853 290.121C107.606 278.874 98.6844 265.523 92.5974 250.829C86.5104 236.135 83.3775 220.386 83.3775 204.482C83.3775 188.577 86.5104 172.828 92.5974 158.134C98.6844 143.44 107.606 130.089 118.853 118.843C130.101 107.597 143.453 98.6757 158.148 92.5893C172.844 86.5028 188.594 83.3702 204.5 83.3702C220.406 83.3702 236.156 86.5028 250.852 92.5893C265.547 98.6757 278.899 107.597 290.147 118.843C301.394 130.089 310.316 143.44 316.403 158.134C322.49 172.828 325.623 188.577 325.623 204.482Z" stroke="#414042" stroke-width="1.143" stroke-miterlimit="10"/>
<path d="M323.88 204.482C323.88 236.141 311.303 266.503 288.915 288.889C266.526 311.275 236.162 323.851 204.5 323.851C172.838 323.851 142.474 311.275 120.085 288.889C97.6973 266.503 85.1198 236.141 85.1198 204.482C85.1198 172.823 97.6973 142.461 120.085 120.075C142.474 97.6887 172.838 85.1123 204.5 85.1123C236.162 85.1123 266.526 97.6887 288.915 120.075C311.303 142.461 323.88 172.823 323.88 204.482Z" stroke="#414042" stroke-width="1.143" stroke-miterlimit="10"/>
<path d="M322.138 204.482C322.138 235.679 309.744 265.598 287.683 287.657C265.621 309.716 235.7 322.109 204.5 322.109C189.052 322.109 173.754 319.067 159.482 313.155C145.209 307.244 132.241 298.58 121.317 287.657C110.394 276.734 101.729 263.767 95.8166 249.496C89.9048 235.225 86.862 219.929 86.862 204.482C86.862 189.035 89.9048 173.739 95.8166 159.468C101.729 145.197 110.394 132.229 121.317 121.307C132.241 110.384 145.209 101.72 159.482 95.8082C173.754 89.8969 189.052 86.8544 204.5 86.8544C219.948 86.8544 235.246 89.8969 249.518 95.8082C263.791 101.72 276.759 110.384 287.683 121.307C298.606 132.229 307.271 145.197 313.183 159.468C319.095 173.739 322.138 189.035 322.138 204.482Z" stroke="#414042" stroke-width="1.143" stroke-miterlimit="10"/>
<path d="M320.432 204.482C320.432 235.226 308.218 264.711 286.476 286.451C264.735 308.19 235.247 320.404 204.5 320.404C173.753 320.404 144.265 308.19 122.524 286.451C100.782 264.711 88.5679 235.226 88.5679 204.482C88.5679 173.737 100.782 144.252 122.524 122.513C144.265 100.773 173.753 88.5602 204.5 88.5602C235.247 88.5602 264.735 100.773 286.476 122.513C308.218 144.252 320.432 173.737 320.432 204.482Z" stroke="#414042" stroke-width="1.143" stroke-miterlimit="10"/>
<path d="M318.69 204.482C318.69 219.476 315.736 234.324 309.998 248.176C304.259 262.029 295.848 274.616 285.244 285.219C274.641 295.822 262.053 304.232 248.199 309.97C234.344 315.708 219.496 318.661 204.5 318.661C189.504 318.661 174.656 315.708 160.801 309.97C146.947 304.232 134.359 295.822 123.756 285.219C113.152 274.616 104.741 262.029 99.0024 248.176C93.2638 234.324 90.3102 219.476 90.3102 204.482C90.3102 189.488 93.2638 174.64 99.0024 160.787C104.741 146.934 113.152 134.347 123.756 123.745C134.359 113.142 146.947 104.732 160.801 98.9937C174.656 93.2556 189.504 90.3023 204.5 90.3023C219.496 90.3023 234.344 93.2556 248.199 98.9937C262.053 104.732 274.641 113.142 285.244 123.745C295.848 134.347 304.259 146.934 309.998 160.787C315.736 174.64 318.69 189.488 318.69 204.482Z" stroke="#414042" stroke-width="1.143" stroke-miterlimit="10"/>
<path d="M316.984 204.482C316.984 234.312 305.133 262.92 284.038 284.013C262.943 305.106 234.333 316.956 204.5 316.956C174.667 316.956 146.057 305.106 124.962 284.013C103.867 262.92 92.0162 234.312 92.0162 204.482C92.0162 174.652 103.867 146.044 124.962 124.951C146.057 103.858 174.667 92.0081 204.5 92.0081C234.333 92.0081 262.943 103.858 284.038 124.951C305.133 146.044 316.984 174.652 316.984 204.482Z" stroke="#414042" stroke-width="1.143" stroke-miterlimit="10"/>
<path d="M315.314 204.482C315.314 233.869 303.639 262.052 282.858 282.832C262.076 303.612 233.89 315.286 204.5 315.286C175.11 315.286 146.924 303.612 126.143 282.832C105.361 262.052 93.6858 233.869 93.6858 204.482C93.6858 175.095 105.361 146.911 126.143 126.131C146.924 105.352 175.11 93.6776 204.5 93.6776C233.89 93.6776 262.076 105.352 282.858 126.131C303.639 146.911 315.314 175.095 315.314 204.482Z" stroke="#414042" stroke-width="1.143" stroke-miterlimit="10"/>
<path d="M313.608 204.482C313.608 218.809 310.786 232.996 305.303 246.232C299.82 259.468 291.783 271.495 281.651 281.626C271.52 291.757 259.492 299.793 246.254 305.276C233.016 310.758 218.828 313.58 204.5 313.58C190.172 313.58 175.984 310.758 162.746 305.276C149.508 299.793 137.48 291.757 127.349 281.626C117.217 271.495 109.18 259.468 103.697 246.232C98.2139 232.996 95.3918 218.809 95.3918 204.482C95.3918 190.155 98.2139 175.968 103.697 162.732C109.18 149.495 117.217 137.468 127.349 127.338C137.48 117.207 149.508 109.171 162.746 103.688C175.984 98.2053 190.172 95.3834 204.5 95.3834C218.828 95.3834 233.016 98.2053 246.254 103.688C259.492 109.171 271.52 117.207 281.651 127.338C291.783 137.468 299.82 149.495 305.303 162.732C310.786 175.968 313.608 190.155 313.608 204.482Z" stroke="#414042" stroke-width="1.143" stroke-miterlimit="10"/>
<path d="M311.975 204.482C311.975 218.594 309.195 232.569 303.794 245.607C298.393 258.645 290.476 270.492 280.496 280.471C270.516 290.45 258.668 298.366 245.629 303.767C232.589 309.167 218.614 311.947 204.5 311.947C190.386 311.947 176.411 309.167 163.371 303.767C150.332 298.366 138.484 290.45 128.504 280.471C118.524 270.492 110.607 258.645 105.206 245.607C99.805 232.569 97.0251 218.594 97.0251 204.482C97.0251 190.369 99.805 176.395 105.206 163.357C110.607 150.318 118.524 138.472 128.504 128.492C138.484 118.513 150.332 110.597 163.371 105.197C176.411 99.7962 190.386 97.0166 204.5 97.0166C218.614 97.0166 232.589 99.7962 245.629 105.197C258.668 110.597 270.516 118.513 280.496 128.492C290.476 138.472 298.393 150.318 303.794 163.357C309.195 176.395 311.975 190.369 311.975 204.482Z" stroke="#414042" stroke-width="1.143" stroke-miterlimit="10"/>
<path d="M310.305 204.482C310.305 232.541 299.158 259.45 279.316 279.291C259.473 299.131 232.561 310.278 204.5 310.278C176.439 310.278 149.527 299.131 129.684 279.291C109.842 259.45 98.6948 232.541 98.6948 204.482C98.6948 176.423 109.842 149.513 129.684 129.673C149.527 109.832 176.439 98.6861 204.5 98.6861C232.561 98.6861 259.473 109.832 279.316 129.673C299.158 149.513 310.305 176.423 310.305 204.482Z" stroke="#414042" stroke-width="1.143" stroke-miterlimit="10"/>
<path d="M308.672 204.482C308.672 232.107 297.697 258.602 278.161 278.136C258.625 297.67 232.128 308.644 204.5 308.644C176.872 308.644 150.375 297.67 130.839 278.136C111.303 258.602 100.328 232.107 100.328 204.482C100.328 176.856 111.303 150.362 130.839 130.828C150.375 111.293 176.872 100.319 204.5 100.319C232.128 100.319 258.625 111.293 278.161 130.828C297.697 150.362 308.672 176.856 308.672 204.482Z" stroke="#414042" stroke-width="1.143" stroke-miterlimit="10"/>
<path d="M307.039 204.482C307.039 231.674 296.235 257.753 277.006 276.981C257.776 296.209 231.695 307.011 204.5 307.011C177.305 307.011 151.224 296.209 131.994 276.981C112.765 257.753 101.961 231.674 101.961 204.482C101.961 177.289 112.765 151.211 131.994 131.983C151.224 112.755 177.305 101.952 204.5 101.952C231.695 101.952 257.776 112.755 277.006 131.983C296.235 151.211 307.039 177.289 307.039 204.482Z" stroke="#414042" stroke-width="1.143" stroke-miterlimit="10"/>
<path d="M305.441 204.482C305.441 217.736 302.831 230.861 297.758 243.107C292.685 255.353 285.25 266.479 275.876 275.852C266.503 285.224 255.375 292.659 243.129 297.731C230.882 302.804 217.756 305.414 204.5 305.414C191.244 305.414 178.118 302.804 165.871 297.731C153.625 292.659 142.497 285.224 133.124 275.852C123.75 266.479 116.315 255.353 111.242 243.107C106.169 230.861 103.559 217.736 103.559 204.482C103.559 191.227 106.169 178.102 111.242 165.857C116.315 153.611 123.75 142.484 133.124 133.112C142.497 123.739 153.625 116.305 165.871 111.232C178.118 106.16 191.244 103.549 204.5 103.549C217.756 103.549 230.882 106.16 243.129 111.232C255.375 116.305 266.503 123.739 275.876 133.112C285.25 142.484 292.685 153.611 297.758 165.857C302.831 178.102 305.441 191.227 305.441 204.482Z" stroke="#414042" stroke-width="1.143" stroke-miterlimit="10"/>
<path d="M303.844 204.482C303.844 230.827 293.378 256.094 274.747 274.723C256.116 293.352 230.848 303.817 204.5 303.817C191.454 303.817 178.536 301.248 166.483 296.256C154.43 291.264 143.478 283.947 134.253 274.723C125.028 265.499 117.71 254.548 112.718 242.496C107.725 230.444 105.156 217.527 105.156 204.482C105.156 191.437 107.725 178.52 112.718 166.468C117.71 154.416 125.028 143.465 134.253 134.241C143.478 125.017 154.43 117.7 166.483 112.708C178.536 107.716 191.454 105.146 204.5 105.146C217.546 105.146 230.464 107.716 242.517 112.708C254.571 117.7 265.522 125.017 274.747 134.241C283.972 143.465 291.29 154.416 296.282 166.468C301.275 178.52 303.844 191.437 303.844 204.482Z" stroke="#414042" stroke-width="1.143" stroke-miterlimit="10"/>
<path d="M302.247 204.482C302.247 230.404 291.949 255.264 273.618 273.593C255.287 291.923 230.424 302.22 204.5 302.22C178.576 302.22 153.713 291.923 135.382 273.593C117.051 255.264 106.753 230.404 106.753 204.482C106.753 178.56 117.051 153.7 135.382 135.37C153.713 117.041 178.576 106.743 204.5 106.743C230.424 106.743 255.287 117.041 273.618 135.37C291.949 153.7 302.247 178.56 302.247 204.482Z" stroke="#414042" stroke-width="1.143" stroke-miterlimit="10"/>
<path d="M300.687 204.482C300.687 229.99 290.553 254.453 272.514 272.49C254.476 290.527 230.01 300.66 204.5 300.66C178.99 300.66 154.524 290.527 136.486 272.49C118.447 254.453 108.313 229.99 108.313 204.482C108.313 178.974 118.447 154.511 136.486 136.474C154.524 118.437 178.99 108.304 204.5 108.304C230.01 108.304 254.476 118.437 272.514 136.474C290.553 154.511 300.687 178.974 300.687 204.482Z" stroke="#414042" stroke-width="1.143" stroke-miterlimit="10"/>
<path d="M299.162 204.482C299.162 229.586 289.189 253.661 271.436 271.412C253.684 289.163 229.606 299.135 204.5 299.135C179.394 299.135 155.316 289.163 137.564 271.412C119.811 253.661 109.838 229.586 109.838 204.482C109.838 179.378 119.811 155.303 137.564 137.552C155.316 119.801 179.394 109.828 204.5 109.828C229.606 109.828 253.684 119.801 271.436 137.552C289.189 155.303 299.162 179.378 299.162 204.482Z" stroke="#414042" stroke-width="1.143" stroke-miterlimit="10"/>
<path d="M297.638 204.482C297.638 216.712 295.229 228.822 290.548 240.121C285.867 251.42 279.007 261.686 270.358 270.334C261.71 278.982 251.442 285.842 240.142 290.522C228.842 295.202 216.731 297.611 204.5 297.611C192.269 297.611 180.158 295.202 168.858 290.522C157.558 285.842 147.29 278.982 138.642 270.334C129.993 261.686 123.133 251.42 118.452 240.121C113.771 228.822 111.362 216.712 111.362 204.482C111.362 192.252 113.771 180.142 118.452 168.843C123.133 157.544 129.993 147.277 138.642 138.629C147.29 129.982 157.558 123.122 168.858 118.442C180.158 113.761 192.269 111.353 204.5 111.353C216.731 111.353 228.842 113.761 240.142 118.442C251.442 123.122 261.71 129.982 270.358 138.629C279.007 147.277 285.867 157.544 290.548 168.843C295.229 180.142 297.638 192.252 297.638 204.482Z" stroke="#414042" stroke-width="1.143" stroke-miterlimit="10"/>
<path d="M296.113 204.482C296.113 228.777 286.461 252.077 269.28 269.256C252.1 286.436 228.797 296.087 204.5 296.087C180.203 296.087 156.901 286.436 139.72 269.256C122.539 252.077 112.887 228.777 112.887 204.482C112.887 180.187 122.539 156.887 139.72 139.707C156.901 122.528 180.203 112.877 204.5 112.877C228.797 112.877 252.1 122.528 269.28 139.707C286.461 156.887 296.113 180.187 296.113 204.482Z" stroke="#414042" stroke-width="1.143" stroke-miterlimit="10"/>
<path d="M294.661 204.482C294.661 228.392 285.162 251.323 268.254 268.23C251.345 285.137 228.412 294.635 204.5 294.635C180.588 294.635 157.655 285.137 140.746 268.23C123.838 251.323 114.339 228.392 114.339 204.482C114.339 180.572 123.838 157.641 140.746 140.734C157.655 123.827 180.588 114.329 204.5 114.329C228.412 114.329 251.345 123.827 268.254 140.734C285.162 157.641 294.661 180.572 294.661 204.482Z" stroke="#414042" stroke-width="1.143" stroke-miterlimit="10"/>
<path d="M293.209 204.482C293.209 228.007 283.863 250.568 267.227 267.203C250.591 283.838 228.027 293.183 204.5 293.183C180.973 293.183 158.409 283.838 141.773 267.203C125.137 250.568 115.791 228.007 115.791 204.482C115.791 180.957 125.137 158.395 141.773 141.76C158.409 125.126 180.973 115.78 204.5 115.78C228.027 115.78 250.591 125.126 267.227 141.76C283.863 158.395 293.209 180.957 293.209 204.482Z" stroke="#414042" stroke-width="1.143" stroke-miterlimit="10"/>
<path d="M291.758 204.482C291.758 227.622 282.564 249.814 266.2 266.177C249.836 282.539 227.642 291.732 204.5 291.732C181.358 291.732 159.164 282.539 142.8 266.177C126.436 249.814 117.242 227.622 117.242 204.482C117.242 181.342 126.436 159.149 142.8 142.787C159.164 126.424 181.358 117.232 204.5 117.232C227.642 117.232 249.836 126.424 266.2 142.787C282.564 159.149 291.758 181.342 291.758 204.482Z" stroke="#414042" stroke-width="1.143" stroke-miterlimit="10"/>
<path d="M290.342 204.482C290.342 227.246 281.298 249.079 265.2 265.176C249.101 281.273 227.267 290.316 204.5 290.316C181.733 290.316 159.899 281.273 143.801 265.176C127.702 249.079 118.658 227.246 118.658 204.482C118.658 181.717 127.702 159.885 143.801 143.788C159.899 127.691 181.733 118.648 204.5 118.648C227.267 118.648 249.101 127.691 265.2 143.788C281.298 159.885 290.342 181.717 290.342 204.482Z" stroke="#414042" stroke-width="1.143" stroke-miterlimit="10"/>
<path d="M288.963 204.482C288.963 215.573 286.778 226.555 282.533 236.801C278.289 247.048 272.067 256.358 264.224 264.201C256.381 272.043 247.07 278.264 236.822 282.508C226.575 286.752 215.592 288.937 204.5 288.937C193.408 288.937 182.425 286.752 172.178 282.508C161.93 278.264 152.619 272.043 144.776 264.201C136.933 256.358 130.711 247.048 126.467 236.801C122.222 226.555 120.037 215.573 120.037 204.482C120.037 182.083 128.936 160.601 144.776 144.763C160.616 128.925 182.099 120.027 204.5 120.027C226.901 120.027 248.384 128.925 264.224 144.763C280.064 160.601 288.963 182.083 288.963 204.482Z" stroke="#414042" stroke-width="1.143" stroke-miterlimit="10"/>
<path d="M287.62 204.482C287.62 226.525 278.863 247.665 263.275 263.251C247.687 278.838 226.545 287.594 204.5 287.594C182.455 287.594 161.313 278.838 145.725 263.251C130.138 247.665 121.38 226.525 121.38 204.482C121.38 182.439 130.138 161.299 145.725 145.713C161.313 130.126 182.455 121.37 204.5 121.37C226.545 121.37 247.687 130.126 263.275 145.713C278.863 161.299 287.62 182.439 287.62 204.482Z" stroke="#414042" stroke-width="1.143" stroke-miterlimit="10"/>
<path d="M286.277 204.482C286.277 226.168 277.661 246.967 262.325 262.302C246.989 277.636 226.189 286.251 204.5 286.251C182.811 286.251 162.011 277.636 146.675 262.302C131.339 246.967 122.723 226.168 122.723 204.482C122.723 182.795 131.339 161.997 146.675 146.662C162.011 131.327 182.811 122.712 204.5 122.712C226.189 122.712 246.989 131.327 262.325 146.662C277.661 161.997 286.277 182.795 286.277 204.482Z" stroke="#414042" stroke-width="1.143" stroke-miterlimit="10"/>
<path d="M285.006 204.482C285.006 225.832 276.524 246.307 261.427 261.403C246.329 276.5 225.852 284.981 204.5 284.981C183.148 284.981 162.671 276.5 147.573 261.403C132.476 246.307 123.994 225.832 123.994 204.482C123.994 183.132 132.476 162.657 147.573 147.56C162.671 132.464 183.148 123.983 204.5 123.983C225.852 123.983 246.329 132.464 261.427 147.56C276.524 162.657 285.006 183.132 285.006 204.482Z" stroke="#414042" stroke-width="1.143" stroke-miterlimit="10"/>
<path d="M283.736 204.482C283.736 214.886 281.687 225.189 277.705 234.801C273.723 244.414 267.886 253.148 260.528 260.505C253.171 267.862 244.436 273.698 234.822 277.68C225.209 281.661 214.905 283.711 204.5 283.711C194.095 283.711 183.791 281.661 174.178 277.68C164.564 273.698 155.829 267.862 148.472 260.505C141.114 253.148 135.278 244.414 131.296 234.801C127.314 225.189 125.264 214.886 125.264 204.482C125.264 194.077 127.314 183.775 131.296 174.162C135.278 164.55 141.114 155.816 148.472 148.459C155.829 141.101 164.564 135.266 174.178 131.284C183.791 127.302 194.095 125.253 204.5 125.253C214.905 125.253 225.209 127.302 234.822 131.284C244.436 135.266 253.171 141.101 260.528 148.459C267.886 155.816 273.723 164.55 277.705 174.162C281.687 183.775 283.736 194.077 283.736 204.482Z" stroke="#414042" stroke-width="1.143" stroke-miterlimit="10"/>
<path d="M282.502 204.482C282.502 225.167 274.284 245.006 259.656 259.633C245.027 274.259 225.187 282.477 204.5 282.477C183.813 282.477 163.973 274.259 149.344 259.633C134.716 245.006 126.498 225.167 126.498 204.482C126.498 183.796 134.716 163.958 149.344 149.331C163.973 134.704 183.813 126.487 204.5 126.487C225.187 126.487 245.027 134.704 259.656 149.331C274.284 163.958 282.502 183.796 282.502 204.482Z" stroke="#414042" stroke-width="1.143" stroke-miterlimit="10"/>
<path d="M281.304 204.482C281.304 224.85 273.212 244.383 258.809 258.786C244.405 273.188 224.87 281.279 204.5 281.279C194.414 281.279 184.427 279.293 175.108 275.433C165.79 271.574 157.323 265.917 150.191 258.786C143.059 251.654 137.402 243.188 133.542 233.871C129.683 224.553 127.696 214.567 127.696 204.482C127.696 194.397 129.683 184.41 133.542 175.093C137.402 165.775 143.059 157.309 150.191 150.178C157.323 143.047 165.79 137.39 175.108 133.53C184.427 129.671 194.414 127.685 204.5 127.685C214.586 127.685 224.573 129.671 233.892 133.53C243.21 137.39 251.677 143.047 258.809 150.178C265.941 157.309 271.598 165.775 275.458 175.093C279.318 184.41 281.304 194.397 281.304 204.482Z" stroke="#414042" stroke-width="1.143" stroke-miterlimit="10"/>
<path d="M280.143 204.482C280.143 224.542 272.173 243.78 257.987 257.964C243.802 272.149 224.562 280.118 204.5 280.118C184.438 280.118 165.198 272.149 151.013 257.964C136.827 243.78 128.857 224.542 128.857 204.482C128.857 184.422 136.827 165.184 151.013 150.999C165.198 136.815 184.438 128.846 204.5 128.846C224.562 128.846 243.802 136.815 257.987 150.999C272.173 165.184 280.143 184.422 280.143 204.482Z" stroke="#414042" stroke-width="1.143" stroke-miterlimit="10"/>
<path d="M279.017 204.482C279.017 214.267 277.09 223.956 273.345 232.996C269.6 242.036 264.111 250.25 257.192 257.169C250.272 264.088 242.057 269.576 233.017 273.321C223.976 277.065 214.286 278.993 204.5 278.993C184.737 278.993 165.783 271.142 151.808 257.169C137.834 243.195 129.983 224.243 129.983 204.482C129.983 184.72 137.834 165.768 151.808 151.795C165.783 137.821 184.737 129.971 204.5 129.971C214.286 129.971 223.976 131.898 233.017 135.643C242.057 139.387 250.272 144.876 257.192 151.795C264.111 158.714 269.6 166.928 273.345 175.968C277.09 185.008 279.017 194.697 279.017 204.482Z" stroke="#414042" stroke-width="1.143" stroke-miterlimit="10"/>
<path d="M277.928 204.482C277.928 223.955 270.192 242.63 256.422 256.399C242.651 270.168 223.974 277.904 204.5 277.904C185.026 277.904 166.349 270.168 152.578 256.399C138.808 242.63 131.072 223.955 131.072 204.482C131.072 185.009 138.808 166.334 152.578 152.565C166.349 138.795 185.026 131.06 204.5 131.06C223.974 131.06 242.651 138.795 256.422 152.565C270.192 166.334 277.928 185.009 277.928 204.482Z" stroke="#414042" stroke-width="1.143" stroke-miterlimit="10"/>
<path d="M276.876 204.482C276.876 223.675 269.251 242.083 255.678 255.655C242.104 269.227 223.695 276.851 204.5 276.851C185.305 276.851 166.896 269.227 153.323 255.655C139.749 242.083 132.124 223.675 132.124 204.482C132.124 185.288 139.749 166.881 153.323 153.309C166.896 139.737 185.305 132.112 204.5 132.112C223.695 132.112 242.104 139.737 255.678 153.309C269.251 166.881 276.876 185.288 276.876 204.482Z" stroke="#414042" stroke-width="1.143" stroke-miterlimit="10"/>
<path d="M275.896 204.482C275.896 213.857 274.049 223.14 270.461 231.801C266.873 240.463 261.614 248.333 254.985 254.962C248.355 261.591 240.484 266.849 231.822 270.437C223.16 274.025 213.876 275.871 204.5 275.871C185.565 275.871 167.405 268.35 154.016 254.962C140.626 241.574 133.104 223.415 133.104 204.482C133.104 185.548 140.626 167.39 154.016 154.002C167.405 140.614 185.565 133.092 204.5 133.092C213.876 133.092 223.16 134.939 231.822 138.527C240.484 142.114 248.355 147.373 254.985 154.002C261.614 160.631 266.873 168.501 270.461 177.162C274.049 185.824 275.896 195.107 275.896 204.482Z" stroke="#414042" stroke-width="1.143" stroke-miterlimit="10"/>
<path d="M274.952 204.482C274.952 213.733 273.13 222.893 269.589 231.44C266.049 239.987 260.859 247.753 254.317 254.295C247.775 260.836 240.009 266.025 231.461 269.565C222.913 273.106 213.752 274.928 204.5 274.928C195.248 274.928 186.087 273.106 177.539 269.565C168.992 266.025 161.225 260.836 154.683 254.295C148.141 247.753 142.951 239.987 139.411 231.44C135.87 222.893 134.048 213.733 134.048 204.482C134.048 195.231 135.87 186.07 139.411 177.523C142.951 168.977 148.141 161.211 154.683 154.669C161.225 148.128 168.992 142.939 177.539 139.398C186.087 135.858 195.248 134.036 204.5 134.036C213.752 134.036 222.913 135.858 231.461 139.398C240.009 142.939 247.775 148.128 254.317 154.669C260.859 161.211 266.049 168.977 269.589 177.523C273.13 186.07 274.952 195.231 274.952 204.482Z" stroke="#414042" stroke-width="1.143" stroke-miterlimit="10"/>
<path d="M274.045 204.482C274.045 222.925 266.718 240.612 253.676 253.653C240.633 266.694 222.944 274.02 204.5 274.02C195.367 274.02 186.324 272.222 177.886 268.727C169.449 265.232 161.782 260.11 155.324 253.653C148.867 247.196 143.744 239.53 140.249 231.093C136.754 222.656 134.955 213.614 134.955 204.482C134.955 195.35 136.754 186.307 140.249 177.871C143.744 169.434 148.867 161.768 155.324 155.311C161.782 148.853 169.449 143.731 177.886 140.237C186.324 136.742 195.367 134.943 204.5 134.943C213.633 134.943 222.676 136.742 231.114 140.237C239.551 143.731 247.218 148.853 253.676 155.311C260.133 161.768 265.256 169.434 268.751 177.871C272.246 186.307 274.045 195.35 274.045 204.482Z" stroke="#414042" stroke-width="1.143" stroke-miterlimit="10"/>
<path d="M273.174 204.482C273.174 213.499 271.397 222.429 267.946 230.76C264.495 239.091 259.437 246.661 253.06 253.037C246.683 259.413 239.112 264.471 230.78 267.922C222.448 271.373 213.518 273.149 204.5 273.149C186.287 273.149 168.819 265.915 155.94 253.037C143.062 240.159 135.826 222.694 135.826 204.482C135.826 186.27 143.062 168.804 155.94 155.927C168.819 143.049 186.287 135.814 204.5 135.814C213.518 135.814 222.448 137.591 230.78 141.041C239.112 144.492 246.683 149.55 253.06 155.927C259.437 162.303 264.495 169.873 267.946 178.204C271.397 186.535 273.174 195.464 273.174 204.482Z" stroke="#414042" stroke-width="1.143" stroke-miterlimit="10"/>
<path d="M272.375 204.482C272.375 222.482 265.224 239.745 252.495 252.472C239.766 265.2 222.502 272.351 204.5 272.351C186.498 272.351 169.234 265.2 156.505 252.472C143.776 239.745 136.625 222.482 136.625 204.482C136.625 186.482 143.776 169.219 156.505 156.491C169.234 143.763 186.498 136.613 204.5 136.613C222.502 136.613 239.766 143.763 252.495 156.491C265.224 169.219 272.375 186.482 272.375 204.482Z" stroke="#414042" stroke-width="1.143" stroke-miterlimit="10"/>
<path d="M271.613 204.482C271.613 222.28 264.542 239.349 251.956 251.934C239.37 264.518 222.299 271.589 204.5 271.589C186.701 271.589 169.63 264.518 157.044 251.934C144.458 239.349 137.387 222.28 137.387 204.482C137.387 186.684 144.458 169.615 157.044 157.03C169.63 144.445 186.701 137.375 204.5 137.375C222.299 137.375 239.37 144.445 251.956 157.03C264.542 169.615 271.613 186.684 271.613 204.482Z" stroke="#414042" stroke-width="1.143" stroke-miterlimit="10"/>
<path d="M270.923 204.482C270.923 222.097 263.925 238.99 251.468 251.446C239.012 263.902 222.117 270.899 204.5 270.899C186.883 270.899 169.988 263.902 157.532 251.446C145.075 238.99 138.077 222.097 138.077 204.482C138.077 186.867 145.075 169.973 157.532 157.518C169.988 145.062 186.883 138.065 204.5 138.065C222.117 138.065 239.012 145.062 251.468 157.518C263.925 169.973 270.923 186.867 270.923 204.482Z" stroke="#414042" stroke-width="1.143" stroke-miterlimit="10"/>
<path d="M270.27 204.482C270.27 221.924 263.341 238.651 251.006 250.984C238.672 263.317 221.943 270.246 204.5 270.246C187.057 270.246 170.328 263.317 157.994 250.984C145.659 238.651 138.73 221.924 138.73 204.482C138.73 187.04 145.659 170.313 157.994 157.98C170.328 145.647 187.057 138.718 204.5 138.718C221.943 138.718 238.672 145.647 251.006 157.98C263.341 170.313 270.27 187.04 270.27 204.482Z" stroke="#414042" stroke-width="1.143" stroke-miterlimit="10"/>
<path d="M269.689 204.482C269.689 221.769 262.821 238.349 250.596 250.573C238.37 262.798 221.789 269.665 204.5 269.665C195.939 269.665 187.462 267.979 179.553 264.703C171.644 261.428 164.458 256.626 158.404 250.573C152.351 244.52 147.549 237.335 144.273 229.426C140.997 221.518 139.311 213.042 139.311 204.482C139.311 195.922 140.997 187.446 144.273 179.537C147.549 171.629 152.351 164.443 158.404 158.39C164.458 152.337 171.644 147.536 179.553 144.26C187.462 140.985 195.939 139.299 204.5 139.299C213.061 139.299 221.538 140.985 229.447 144.26C237.356 147.536 244.542 152.337 250.596 158.39C256.649 164.443 261.451 171.629 264.727 179.537C268.003 187.446 269.689 195.922 269.689 204.482Z" stroke="#414042" stroke-width="1.143" stroke-miterlimit="10"/>
<path d="M269.181 204.482C269.181 212.975 267.508 221.385 264.257 229.232C261.007 237.079 256.243 244.208 250.236 250.214C244.23 256.22 237.1 260.984 229.252 264.234C221.405 267.484 212.994 269.157 204.5 269.157C187.346 269.157 170.894 262.343 158.764 250.214C146.634 238.085 139.819 221.635 139.819 204.482C139.819 187.329 146.634 170.879 158.764 158.75C170.894 146.621 187.346 139.807 204.5 139.807C212.994 139.807 221.405 141.48 229.252 144.73C237.1 147.98 244.23 152.744 250.236 158.75C256.243 164.755 261.007 171.885 264.257 179.732C267.508 187.578 269.181 195.989 269.181 204.482Z" stroke="#414042" stroke-width="1.143" stroke-miterlimit="10"/>
<path d="M268.709 204.482C268.709 221.51 261.944 237.84 249.903 249.88C237.861 261.921 221.529 268.685 204.5 268.685C187.471 268.685 171.139 261.921 159.097 249.88C147.056 237.84 140.291 221.51 140.291 204.482C140.291 187.454 147.056 171.124 159.097 159.083C171.139 147.043 187.471 140.278 204.5 140.278C221.529 140.278 237.861 147.043 249.903 159.083C261.944 171.124 268.709 187.454 268.709 204.482Z" stroke="#414042" stroke-width="1.143" stroke-miterlimit="10"/>
<path d="M268.31 204.482C268.31 212.861 266.659 221.158 263.453 228.899C260.246 236.64 255.546 243.673 249.62 249.598C243.695 255.523 236.661 260.223 228.919 263.429C221.177 266.636 212.88 268.286 204.5 268.286C187.577 268.286 171.346 261.564 159.38 249.598C147.413 237.633 140.69 221.404 140.69 204.482C140.69 187.56 147.413 171.331 159.38 159.366C171.346 147.4 187.577 140.678 204.5 140.678C212.88 140.678 221.177 142.328 228.919 145.535C236.661 148.741 243.695 153.441 249.62 159.366C255.546 165.29 260.246 172.324 263.453 180.065C266.659 187.806 268.31 196.103 268.31 204.482Z" stroke="#414042" stroke-width="1.143" stroke-miterlimit="10"/>
<path d="M267.983 204.482C267.983 221.317 261.295 237.463 249.389 249.367C237.484 261.271 221.337 267.959 204.5 267.959C187.663 267.959 171.516 261.271 159.611 249.367C147.705 237.463 141.017 221.317 141.017 204.482C141.017 187.647 147.705 171.501 159.611 159.596C171.516 147.692 187.663 141.004 204.5 141.004C221.337 141.004 237.484 147.692 249.389 159.596C261.295 171.501 267.983 187.647 267.983 204.482Z" stroke="#414042" stroke-width="1.143" stroke-miterlimit="10"/>
<path d="M267.693 204.482C267.693 212.78 266.058 220.996 262.883 228.663C259.707 236.329 255.052 243.294 249.184 249.162C243.316 255.029 236.35 259.684 228.683 262.859C221.016 266.035 212.799 267.669 204.5 267.669C196.201 267.669 187.984 266.035 180.317 262.859C172.65 259.684 165.684 255.029 159.816 249.162C153.948 243.294 149.293 236.329 146.118 228.663C142.942 220.996 141.307 212.78 141.307 204.482C141.307 196.184 142.942 187.967 146.118 180.301C149.293 172.635 153.948 165.669 159.816 159.802C165.684 153.934 172.65 149.28 180.317 146.105C187.984 142.929 196.201 141.295 204.5 141.295C212.799 141.295 221.016 142.929 228.683 146.105C236.35 149.28 243.316 153.934 249.184 159.802C255.052 165.669 259.707 172.635 262.883 180.301C266.058 187.967 267.693 196.184 267.693 204.482Z" stroke="#414042" stroke-width="1.143" stroke-miterlimit="10"/>
<path d="M267.511 204.482C267.511 221.192 260.873 237.218 249.056 249.034C237.239 260.849 221.212 267.487 204.5 267.487C196.225 267.487 188.032 265.858 180.387 262.691C172.742 259.525 165.795 254.884 159.944 249.034C154.093 243.183 149.452 236.237 146.285 228.593C143.119 220.949 141.489 212.756 141.489 204.482C141.489 196.208 143.119 188.015 146.285 180.371C149.452 172.726 154.093 165.781 159.944 159.93C165.795 154.079 172.742 149.439 180.387 146.272C188.032 143.106 196.225 141.476 204.5 141.476C212.775 141.476 220.969 143.106 228.613 146.272C236.258 149.439 243.205 154.079 249.056 159.93C254.907 165.781 259.548 172.726 262.715 180.371C265.881 188.015 267.511 196.208 267.511 204.482Z" stroke="#414042" stroke-width="1.143" stroke-miterlimit="10"/>
<path d="M267.366 204.482C267.366 221.153 260.743 237.142 248.953 248.931C237.163 260.72 221.173 267.342 204.5 267.342C187.827 267.342 171.837 260.72 160.047 248.931C148.257 237.142 141.634 221.153 141.634 204.482C141.634 187.81 148.257 171.821 160.047 160.033C171.837 148.244 187.827 141.621 204.5 141.621C221.173 141.621 237.163 148.244 248.953 160.033C260.743 171.821 267.366 187.81 267.366 204.482Z" stroke="#414042" stroke-width="1.143" stroke-miterlimit="10"/>
<path d="M267.294 204.482C267.294 221.134 260.678 237.105 248.902 248.88C237.126 260.655 221.154 267.27 204.5 267.27C187.846 267.27 171.874 260.655 160.098 248.88C148.322 237.105 141.707 221.134 141.707 204.482C141.707 187.829 148.322 171.859 160.098 160.084C171.874 148.309 187.846 141.694 204.5 141.694C221.154 141.694 237.126 148.309 248.902 160.084C260.678 171.859 267.294 187.829 267.294 204.482Z" stroke="#414042" stroke-width="1.143" stroke-miterlimit="10"/>
<path d="M267.294 204.482C267.294 221.134 260.678 237.105 248.902 248.88C237.126 260.655 221.154 267.27 204.5 267.27C187.846 267.27 171.874 260.655 160.098 248.88C148.322 237.105 141.707 221.134 141.707 204.482C141.707 187.829 148.322 171.859 160.098 160.084C171.874 148.309 187.846 141.694 204.5 141.694C221.154 141.694 237.126 148.309 248.902 160.084C260.678 171.859 267.294 187.829 267.294 204.482Z" stroke="#414042" stroke-width="1.143" stroke-miterlimit="10"/>
<path d="M267.33 204.482C267.33 221.144 260.71 237.123 248.927 248.905C237.145 260.687 221.164 267.306 204.5 267.306C196.249 267.306 188.079 265.681 180.456 262.524C172.833 259.367 165.907 254.739 160.073 248.905C154.238 243.071 149.61 236.146 146.453 228.524C143.295 220.901 141.67 212.732 141.67 204.482C141.67 196.232 143.295 188.062 146.453 180.44C149.61 172.818 154.238 165.892 160.073 160.058C165.907 154.225 172.833 149.597 180.456 146.44C188.079 143.283 196.249 141.658 204.5 141.658C212.751 141.658 220.921 143.283 228.544 146.44C236.167 149.597 243.093 154.225 248.927 160.058C254.762 165.892 259.39 172.818 262.547 180.44C265.705 188.062 267.33 196.232 267.33 204.482Z" stroke="#414042" stroke-width="1.143" stroke-miterlimit="10"/>
<path d="M267.475 204.482C267.475 221.182 260.84 237.199 249.03 249.008C237.22 260.817 221.202 267.451 204.5 267.451C187.798 267.451 171.78 260.817 159.97 249.008C148.16 237.199 141.525 221.182 141.525 204.482C141.525 187.781 148.16 171.765 159.97 159.956C171.78 148.147 187.798 141.512 204.5 141.512C221.202 141.512 237.22 148.147 249.03 159.956C260.84 171.765 267.475 187.781 267.475 204.482Z" stroke="#414042" stroke-width="1.143" stroke-miterlimit="10"/>
<path d="M267.656 204.482C267.656 221.23 261.002 237.293 249.158 249.136C237.314 260.979 221.25 267.633 204.5 267.633C187.75 267.633 171.686 260.979 159.842 249.136C147.997 237.293 141.344 221.23 141.344 204.482C141.344 187.733 147.997 171.671 159.842 159.827C171.686 147.984 187.75 141.331 204.5 141.331C221.25 141.331 237.314 147.984 249.158 159.827C261.002 171.671 267.656 187.733 267.656 204.482Z" stroke="#414042" stroke-width="1.143" stroke-miterlimit="10"/>
<path d="M267.911 204.482C267.911 221.298 261.23 237.425 249.338 249.316C237.446 261.207 221.318 267.887 204.5 267.887C187.682 267.887 171.554 261.207 159.662 249.316C147.77 237.425 141.089 221.298 141.089 204.482C141.089 187.666 147.77 171.539 159.662 159.648C171.554 147.757 187.682 141.077 204.5 141.077C221.318 141.077 237.446 147.757 249.338 159.648C261.23 171.539 267.911 187.666 267.911 204.482Z" stroke="#414042" stroke-width="1.143" stroke-miterlimit="10"/>
<path d="M268.237 204.482C268.237 221.384 261.522 237.595 249.569 249.547C237.616 261.499 221.404 268.213 204.5 268.213C196.13 268.213 187.842 266.565 180.109 263.362C172.376 260.159 165.35 255.465 159.431 249.547C153.512 243.629 148.818 236.603 145.614 228.871C142.411 221.139 140.763 212.851 140.763 204.482C140.763 196.112 142.411 187.825 145.614 180.093C148.818 172.361 153.512 165.335 159.431 159.417C165.35 153.499 172.376 148.804 180.109 145.602C187.842 142.399 196.13 140.75 204.5 140.75C212.87 140.75 221.158 142.399 228.891 145.602C236.624 148.804 243.651 153.499 249.569 159.417C255.488 165.335 260.182 172.361 263.386 180.093C266.589 187.825 268.237 196.112 268.237 204.482Z" stroke="#414042" stroke-width="1.143" stroke-miterlimit="10"/>
<path d="M268.637 204.482C268.637 221.49 261.879 237.802 249.851 249.829C237.823 261.856 221.51 268.613 204.5 268.613C187.49 268.613 171.177 261.856 159.149 249.829C147.121 237.802 140.364 221.49 140.364 204.482C140.364 187.473 147.121 171.161 159.149 159.135C171.177 147.108 187.49 140.351 204.5 140.351C221.51 140.351 237.823 147.108 249.851 159.135C261.879 171.161 268.637 187.473 268.637 204.482Z" stroke="#414042" stroke-width="1.143" stroke-miterlimit="10"/>
<path d="M269.072 204.482C269.072 221.606 262.269 238.029 250.159 250.137C238.05 262.246 221.626 269.048 204.5 269.048C187.374 269.048 170.95 262.246 158.841 250.137C146.731 238.029 139.928 221.606 139.928 204.482C139.928 187.358 146.731 170.935 158.841 158.827C170.95 146.718 187.374 139.916 204.5 139.916C221.626 139.916 238.05 146.718 250.159 158.827C262.269 170.935 269.072 187.358 269.072 204.482Z" stroke="#414042" stroke-width="1.143" stroke-miterlimit="10"/>
<path d="M269.58 204.482C269.58 221.741 262.724 238.293 250.519 250.496C238.314 262.7 221.76 269.556 204.5 269.556C187.24 269.556 170.686 262.7 158.481 250.496C146.276 238.293 139.42 221.741 139.42 204.482C139.42 187.223 146.276 170.671 158.481 158.467C170.686 146.263 187.24 139.407 204.5 139.407C221.76 139.407 238.314 146.263 250.519 158.467C262.724 170.671 269.58 187.223 269.58 204.482Z" stroke="#414042" stroke-width="1.143" stroke-miterlimit="10"/>
<path d="M270.161 204.482C270.161 221.895 263.243 238.594 250.929 250.907C238.615 263.22 221.914 270.137 204.5 270.137C187.086 270.137 170.385 263.22 158.071 250.907C145.757 238.594 138.839 221.895 138.839 204.482C138.839 187.069 145.757 170.369 158.071 158.057C170.385 145.744 187.086 138.827 204.5 138.827C221.914 138.827 238.615 145.744 250.929 158.057C263.243 170.369 270.161 187.069 270.161 204.482Z" stroke="#414042" stroke-width="1.143" stroke-miterlimit="10"/>
<path d="M270.778 204.482C270.778 222.058 263.795 238.915 251.366 251.343C238.936 263.772 222.078 270.754 204.5 270.754C195.796 270.754 187.178 269.04 179.137 265.709C171.095 262.379 163.789 257.497 157.634 251.343C151.48 245.189 146.598 237.884 143.267 229.843C139.936 221.803 138.222 213.185 138.222 204.482C138.222 195.779 139.936 187.161 143.267 179.121C146.598 171.08 151.48 163.774 157.634 157.62C163.789 151.466 171.095 146.585 179.137 143.254C187.178 139.924 195.796 138.21 204.5 138.21C213.204 138.21 221.822 139.924 229.864 143.254C237.905 146.585 245.211 151.466 251.366 157.62C257.52 163.774 262.402 171.08 265.733 179.121C269.064 187.161 270.778 195.779 270.778 204.482Z" stroke="#414042" stroke-width="1.143" stroke-miterlimit="10"/>
<path d="M407 204.482C407 258.183 385.665 309.685 347.689 347.658C309.713 385.631 258.206 406.964 204.5 406.964C177.907 406.964 151.575 401.726 127.007 391.551C102.438 381.375 80.1147 366.46 61.3109 347.658C42.507 328.856 27.591 306.535 17.4144 281.968C7.23782 257.402 2 231.072 2 204.482C2 177.892 7.23782 151.562 17.4144 126.995C27.591 102.429 42.507 80.1077 61.3109 61.3056C80.1147 42.5034 102.438 27.5887 127.007 17.413C151.575 7.23736 177.907 2 204.5 2C231.093 2 257.425 7.23736 281.993 17.413C306.562 27.5887 328.885 42.5034 347.689 61.3056C366.493 80.1077 381.409 102.429 391.586 126.995C401.762 151.562 407 177.892 407 204.482Z" stroke="#282829" stroke-width="3.429" stroke-miterlimit="10"/>
<path d="M400.721 204.482C400.721 256.518 380.048 306.423 343.249 343.218C306.45 380.013 256.541 400.685 204.5 400.685C152.459 400.685 102.55 380.013 65.7511 343.218C28.9526 306.423 8.27937 256.518 8.27937 204.482C8.27937 152.446 28.9526 102.541 65.7511 65.7453C102.55 28.9501 152.459 8.2788 204.5 8.2788C256.541 8.2788 306.45 28.9501 343.249 65.7453C380.048 102.541 400.721 152.446 400.721 204.482Z" stroke="#282829" stroke-width="3.429" stroke-miterlimit="10"/>
<path d="M381.048 204.482C381.048 251.301 362.447 296.203 329.338 329.309C296.229 362.415 251.323 381.014 204.5 381.014C157.677 381.014 112.771 362.415 79.6619 329.309C46.5528 296.203 27.9522 251.301 27.9522 204.482C27.9522 157.663 46.5528 112.761 79.6619 79.6549C112.771 46.5487 157.677 27.9499 204.5 27.9499C251.323 27.9499 296.229 46.5487 329.338 79.6549C362.447 112.761 381.048 157.663 381.048 204.482Z" stroke="#282829" stroke-width="3.429" stroke-miterlimit="10"/>
<path d="M361.81 204.482C361.81 246.199 345.237 286.208 315.735 315.707C286.234 345.206 246.221 361.778 204.5 361.778C162.779 361.778 122.766 345.206 93.2647 315.707C63.7633 286.208 47.1896 246.199 47.1896 204.482C47.1896 162.764 63.7633 122.755 93.2647 93.2565C122.766 63.7577 162.779 47.1855 204.5 47.1855C246.221 47.1855 286.234 63.7577 315.735 93.2565C345.237 122.755 361.81 162.764 361.81 204.482Z" stroke="#282829" stroke-width="3.429" stroke-miterlimit="10"/>
<path d="M348.853 204.482C348.853 242.763 333.644 279.476 306.573 306.545C279.501 333.614 242.785 348.821 204.5 348.821C185.543 348.821 166.772 345.088 149.259 337.834C131.745 330.58 115.832 319.948 102.427 306.545C89.023 293.142 78.3901 277.23 71.1357 259.718C63.8813 242.206 60.1475 223.437 60.1475 204.482C60.1475 185.527 63.8813 166.758 71.1357 149.245C78.3901 131.733 89.023 115.822 102.427 102.418C115.832 89.0152 131.745 78.3832 149.259 71.1295C166.772 63.8758 185.543 60.1423 204.5 60.1423C223.457 60.1423 242.228 63.8758 259.741 71.1295C277.255 78.3832 293.168 89.0152 306.573 102.418C319.977 115.822 330.61 131.733 337.864 149.245C345.119 166.758 348.853 185.527 348.853 204.482Z" stroke="#282829" stroke-width="3.429" stroke-miterlimit="10"/>
<path d="M332.737 204.482C332.737 238.489 319.226 271.104 295.177 295.151C271.128 319.198 238.511 332.707 204.5 332.707C170.49 332.707 137.872 319.198 113.823 295.151C89.7739 271.104 76.2633 238.489 76.2633 204.482C76.2633 170.474 89.7739 137.86 113.823 113.813C137.872 89.7661 170.49 76.2567 204.5 76.2567C238.511 76.2567 271.128 89.7661 295.177 113.813C319.226 137.86 332.737 170.474 332.737 204.482Z" stroke="#282829" stroke-width="3.429" stroke-miterlimit="10"/>
<path d="M317.819 204.482C317.819 219.362 314.888 234.096 309.193 247.843C303.498 261.59 295.151 274.081 284.628 284.603C274.106 295.125 261.614 303.471 247.865 309.165C234.117 314.86 219.381 317.79 204.5 317.79C189.619 317.79 174.883 314.86 161.135 309.165C147.386 303.471 134.894 295.125 124.372 284.603C113.849 274.081 105.502 261.59 99.8072 247.843C94.1124 234.096 91.1813 219.362 91.1813 204.482C91.1813 189.602 94.1124 174.868 99.8072 161.121C105.502 147.373 113.849 134.882 124.372 124.361C134.894 113.839 147.386 105.493 161.135 99.7984C174.883 94.1041 189.619 91.1733 204.5 91.1733C219.381 91.1733 234.117 94.1041 247.865 99.7984C261.614 105.493 274.106 113.839 284.628 124.361C295.151 134.882 303.498 147.373 309.193 161.121C314.888 174.868 317.819 189.602 317.819 204.482Z" stroke="#282829" stroke-width="3.429" stroke-miterlimit="10"/>
<path d="M306.421 204.482C306.421 231.511 295.683 257.432 276.569 276.545C257.455 295.657 231.531 306.394 204.5 306.394C177.469 306.394 151.545 295.657 132.431 276.545C113.317 257.432 102.579 231.511 102.579 204.482C102.579 177.453 113.317 151.531 132.431 132.419C151.545 113.307 177.469 102.57 204.5 102.57C231.531 102.57 257.455 113.307 276.569 132.419C295.683 151.531 306.421 177.453 306.421 204.482Z" stroke="#282829" stroke-width="3.429" stroke-miterlimit="10"/>
<path d="M293.064 204.482C293.064 227.968 283.733 250.493 267.124 267.101C250.515 283.708 227.989 293.038 204.5 293.038C181.011 293.038 158.485 283.708 141.876 267.101C125.267 250.493 115.936 227.968 115.936 204.482C115.936 180.995 125.267 158.471 141.876 141.863C158.485 125.256 181.011 115.926 204.5 115.926C227.989 115.926 250.515 125.256 267.124 141.863C283.733 158.471 293.064 180.995 293.064 204.482Z" stroke="#282829" stroke-width="3.429" stroke-miterlimit="10"/>
<path d="M204.5 115.926C155.572 115.926 115.936 155.594 115.936 204.482C115.936 253.369 155.608 293.038 204.5 293.038C253.392 293.038 293.064 253.369 293.064 204.482C293.064 155.594 253.392 115.926 204.5 115.926ZM204.5 210.18C201.342 210.18 198.801 207.639 198.801 204.482C198.801 201.324 201.342 198.784 204.5 198.784C207.658 198.784 210.199 201.324 210.199 204.482C210.199 207.639 207.622 210.18 204.5 210.18Z" fill="#282829"/>
<path d="M204.5 135.96C166.642 135.96 135.972 166.628 135.972 204.482C135.972 242.336 166.642 273.004 204.5 273.004C242.358 273.004 273.028 242.336 273.028 204.482C273.028 166.628 242.358 135.96 204.5 135.96ZM204.5 210.18C201.342 210.18 198.801 207.639 198.801 204.482C198.801 201.324 201.342 198.784 204.5 198.784C207.658 198.784 210.199 201.324 210.199 204.482C210.199 207.639 207.622 210.18 204.5 210.18Z" fill="#C4161C"/>
<path d="M204.5 141.694C169.837 141.694 141.707 169.821 141.707 204.482C141.707 239.142 169.837 267.27 204.5 267.27C239.163 267.27 267.294 239.142 267.294 204.482C267.294 169.821 239.163 141.694 204.5 141.694Z" stroke="#9E0B0F" stroke-width="5.715" stroke-miterlimit="10"/>
<path opacity="0.12" d="M306.422 204.482C306.422 148.191 260.796 102.57 204.5 102.57V115.926C253.428 115.926 293.064 155.594 293.064 204.482H306.422Z" fill="url(#paint0_linear_1_292)"/>
<path opacity="0.12" d="M317.819 204.482C317.819 141.912 267.076 91.1733 204.5 91.1733V102.57C260.796 102.57 306.422 148.191 306.422 204.482H317.819Z" fill="url(#paint1_linear_1_292)"/>
<path opacity="0.12" d="M332.737 204.482C332.737 133.673 275.315 76.2567 204.5 76.2567V60.1423C284.208 60.1423 348.853 124.781 348.853 204.482H332.737Z" fill="url(#paint2_linear_1_292)"/>
<path opacity="0.12" d="M348.853 204.482C348.853 124.781 284.208 60.1423 204.5 60.1423V47.1855C291.395 47.1855 361.81 117.595 361.81 204.482H348.853Z" fill="url(#paint3_linear_1_292)"/>
<path opacity="0.12" d="M361.81 204.482C361.81 117.595 291.395 47.1855 204.5 47.1855V27.9499C302.03 27.9499 381.048 106.997 381.048 204.482H361.81Z" fill="url(#paint4_linear_1_292)"/>
<path opacity="0.12" d="M381.048 204.482C381.048 106.961 301.993 27.9499 204.5 27.9499V8.31509C312.846 8.31509 400.721 96.1455 400.721 204.518H381.048V204.482Z" fill="url(#paint5_linear_1_292)"/>
<path opacity="0.2" d="M400.684 204.482C400.684 96.1455 312.846 8.27881 204.464 8.27881V2C316.294 2 406.964 92.6613 406.964 204.482H400.684Z" fill="url(#paint6_linear_1_292)"/>
<path opacity="0.12" d="M317.819 204.482C317.819 141.912 267.076 91.1733 204.5 91.1733V76.2567C275.315 76.2567 332.737 133.673 332.737 204.482H317.819Z" fill="url(#paint7_linear_1_292)"/>
<path opacity="0.12" d="M102.542 204.482C102.542 260.773 148.167 306.394 204.464 306.394V293.038C155.536 293.038 115.899 253.369 115.899 204.482H102.542Z" fill="url(#paint8_linear_1_292)"/>
<path opacity="0.12" d="M91.1813 204.482C91.1813 267.052 141.924 317.79 204.5 317.79V306.43C148.204 306.43 102.579 260.809 102.579 204.518H91.1813V204.482Z" fill="url(#paint9_linear_1_292)"/>
<path opacity="0.12" d="M76.227 204.482C76.227 275.291 133.649 332.707 204.464 332.707V348.821C124.756 348.821 60.1112 284.183 60.1112 204.482H76.227Z" fill="url(#paint10_linear_1_292)"/>
<path opacity="0.12" d="M60.1475 204.482C60.1475 284.183 124.792 348.821 204.5 348.821V361.778C117.605 361.778 47.1896 291.369 47.1896 204.482H60.1475Z" fill="url(#paint11_linear_1_292)"/>
<path opacity="0.12" d="M47.1896 204.482C47.1896 291.369 117.605 361.778 204.5 361.778V381.014C106.97 381.014 27.9523 301.966 27.9523 204.482H47.1896Z" fill="url(#paint12_linear_1_292)"/>
<path opacity="0.12" d="M27.916 204.482C27.916 302.003 106.97 381.014 204.464 381.014V400.649C96.1177 400.649 8.24307 312.818 8.24307 204.446H27.916V204.482Z" fill="url(#paint13_linear_1_292)"/>
<path opacity="0.2" d="M8.27937 204.482C8.27937 312.819 96.1177 400.685 204.5 400.685V406.964C92.6695 406.964 2.00002 316.303 2.00002 204.482H8.27937Z" fill="url(#paint14_linear_1_292)"/>
<path opacity="0.12" d="M91.1813 204.482C91.1813 267.052 141.924 317.79 204.5 317.79V332.707C133.685 332.707 76.2633 275.291 76.2633 204.482H91.1813Z" fill="url(#paint15_linear_1_292)"/>
</g>
<defs>
<linearGradient id="paint0_linear_1_292" x1="211.705" y1="95.3568" x2="313.626" y2="197.288" gradientUnits="userSpaceOnUse">
<stop stop-color="white" stop-opacity="0"/>
<stop offset="0.4312" stop-color="white" stop-opacity="0.8625"/>
<stop offset="0.5" stop-color="white"/>
<stop offset="0.5688" stop-color="white" stop-opacity="0.8625"/>
<stop offset="1" stop-color="white" stop-opacity="0"/>
</linearGradient>
<linearGradient id="paint1_linear_1_292" x1="213.375" y1="82.2962" x2="326.687" y2="195.619" gradientUnits="userSpaceOnUse">
<stop stop-color="white" stop-opacity="0"/>
<stop offset="0.5" stop-color="white"/>
<stop offset="1" stop-color="white" stop-opacity="0"/>
</linearGradient>
<linearGradient id="paint2_linear_1_292" x1="215.41" y1="49.2331" x2="359.75" y2="193.586" gradientUnits="userSpaceOnUse">
<stop offset="0.05" stop-color="white" stop-opacity="0"/>
<stop offset="0.5" stop-color="white"/>
<stop offset="0.95" stop-color="white" stop-opacity="0"/>
</linearGradient>
<linearGradient id="paint3_linear_1_292" x1="217.538" y1="34.1442" x2="374.839" y2="191.46" gradientUnits="userSpaceOnUse">
<stop offset="0.05" stop-color="white" stop-opacity="0"/>
<stop offset="0.5" stop-color="white"/>
<stop offset="0.95" stop-color="white" stop-opacity="0"/>
</linearGradient>
<linearGradient id="paint4_linear_1_292" x1="217.96" y1="14.477" x2="394.507" y2="191.04" gradientUnits="userSpaceOnUse">
<stop offset="0.1" stop-color="white" stop-opacity="0"/>
<stop offset="0.5" stop-color="white"/>
<stop offset="0.9" stop-color="white" stop-opacity="0"/>
</linearGradient>
<linearGradient id="paint5_linear_1_292" x1="219.894" y1="-7.10216" x2="416.086" y2="189.107" gradientUnits="userSpaceOnUse">
<stop offset="0.1" stop-color="white" stop-opacity="0"/>
<stop offset="0.155" stop-color="white" stop-opacity="0.1375"/>
<stop offset="0.5" stop-color="white"/>
<stop offset="0.845" stop-color="white" stop-opacity="0.1375"/>
<stop offset="0.9" stop-color="white" stop-opacity="0"/>
</linearGradient>
<linearGradient id="paint6_linear_1_292" x1="223.887" y1="-17.3715" x2="426.356" y2="185.116" gradientUnits="userSpaceOnUse">
<stop stop-color="white" stop-opacity="0"/>
<stop offset="0.5" stop-color="white"/>
<stop offset="1" stop-color="white" stop-opacity="0"/>
</linearGradient>
<linearGradient id="paint7_linear_1_292" x1="214.037" y1="66.7093" x2="342.274" y2="194.958" gradientUnits="userSpaceOnUse">
<stop stop-color="white" stop-opacity="0"/>
<stop offset="0.5" stop-color="white"/>
<stop offset="1" stop-color="white" stop-opacity="0"/>
</linearGradient>
<linearGradient id="paint8_linear_1_292" x1="197.272" y1="313.632" x2="95.3499" y2="211.701" gradientUnits="userSpaceOnUse">
<stop stop-color="white" stop-opacity="0"/>
<stop offset="0.4312" stop-color="white" stop-opacity="0.8625"/>
<stop offset="0.5" stop-color="white"/>
<stop offset="0.5688" stop-color="white" stop-opacity="0.8625"/>
<stop offset="1" stop-color="white" stop-opacity="0"/>
</linearGradient>
<linearGradient id="paint9_linear_1_292" x1="195.601" y1="326.693" x2="82.289" y2="213.37" gradientUnits="userSpaceOnUse">
<stop stop-color="white" stop-opacity="0"/>
<stop offset="0.5" stop-color="white"/>
<stop offset="1" stop-color="white" stop-opacity="0"/>
</linearGradient>
<linearGradient id="paint10_linear_1_292" x1="193.566" y1="359.756" x2="49.2256" y2="215.403" gradientUnits="userSpaceOnUse">
<stop offset="0.05" stop-color="white" stop-opacity="0"/>
<stop offset="0.5" stop-color="white"/>
<stop offset="0.95" stop-color="white" stop-opacity="0"/>
</linearGradient>
<linearGradient id="paint11_linear_1_292" x1="191.438" y1="374.844" x2="34.1366" y2="217.529" gradientUnits="userSpaceOnUse">
<stop offset="0.05" stop-color="white" stop-opacity="0"/>
<stop offset="0.5" stop-color="white"/>
<stop offset="0.95" stop-color="white" stop-opacity="0"/>
</linearGradient>
<linearGradient id="paint12_linear_1_292" x1="191.016" y1="394.512" x2="14.4695" y2="217.949" gradientUnits="userSpaceOnUse">
<stop offset="0.1" stop-color="white" stop-opacity="0"/>
<stop offset="0.5" stop-color="white"/>
<stop offset="0.9" stop-color="white" stop-opacity="0"/>
</linearGradient>
<linearGradient id="paint13_linear_1_292" x1="189.082" y1="416.091" x2="-7.11024" y2="219.882" gradientUnits="userSpaceOnUse">
<stop offset="0.1" stop-color="white" stop-opacity="0"/>
<stop offset="0.155" stop-color="white" stop-opacity="0.1375"/>
<stop offset="0.5" stop-color="white"/>
<stop offset="0.845" stop-color="white" stop-opacity="0.1375"/>
<stop offset="0.9" stop-color="white" stop-opacity="0"/>
</linearGradient>
<linearGradient id="paint14_linear_1_292" x1="185.089" y1="426.361" x2="-17.3799" y2="223.874" gradientUnits="userSpaceOnUse">
<stop stop-color="white" stop-opacity="0"/>
<stop offset="0.5" stop-color="white"/>
<stop offset="1" stop-color="white" stop-opacity="0"/>
</linearGradient>
<linearGradient id="paint15_linear_1_292" x1="194.939" y1="342.279" x2="66.702" y2="214.031" gradientUnits="userSpaceOnUse">
<stop stop-color="white" stop-opacity="0"/>
<stop offset="0.5" stop-color="white"/>
<stop offset="1" stop-color="white" stop-opacity="0"/>
</linearGradient>
<clipPath id="clip0_1_292">
<rect width="405" height="405" fill="white" transform="translate(2 2)"/>
</clipPath>
</defs>
</svg>
